<svg width="31" height="34" viewBox="0 0 31 34" fill="none" xmlns="http://www.w3.org/2000/svg">
<path fill-rule="evenodd" clip-rule="evenodd" d="M23.377 26.1075C22.9795 26.1075 22.6542 26.4329 22.6542 26.8304V33.3361L29.8827 26.1075H23.377Z" fill="#E8EAF0"/>
<path fill-rule="evenodd" clip-rule="evenodd" d="M22.6541 26.8303C22.6541 26.4328 22.9794 26.1075 23.3769 26.1075H29.8826V1.38689C29.8826 0.989319 29.5571 0.664062 29.1597 0.664062H4.58355C4.18597 0.664062 3.86072 0.989319 3.86072 1.38689V32.6132C3.86072 33.0106 4.18597 33.336 4.58355 33.336H22.6541V26.8303Z" fill="white"/>
<path fill-rule="evenodd" clip-rule="evenodd" d="M24.6465 9.10784C24.6465 8.37744 24.0488 7.77979 23.3183 7.77979H1.99218C1.26172 7.77979 0.664062 8.37744 0.664062 9.10784V18.4047C0.664062 19.1352 1.26172 19.7329 1.99218 19.7329H23.3183C24.0487 19.7329 24.6465 19.1351 24.6465 18.4047V9.10784Z" fill="#1AB900"/>
<path d="M7.74524 11.7538C8.1114 11.7538 8.4093 12.0517 8.4093 12.4179C8.44158 13.2975 9.70495 13.2979 9.73743 12.4179C9.63729 9.77853 5.85273 9.77946 5.75305 12.4179V15.0742C5.85346 17.7137 9.63775 17.7124 9.73743 15.0742C9.73743 14.7074 9.44006 14.4101 9.07336 14.4101C8.70667 14.4101 8.4093 14.7074 8.4093 15.0742C8.4093 15.4403 8.1114 15.7382 7.74524 15.7382C7.37908 15.7382 7.08118 15.4403 7.08118 15.0742V12.4179C7.08118 12.0517 7.37914 11.7538 7.74524 11.7538Z" fill="white"/>
<path d="M13.2295 13.2788L12.5233 12.9864C12.1969 12.8512 12.0413 12.4755 12.1765 12.149C12.3117 11.8227 12.6873 11.667 13.0138 11.8022L13.3668 11.9484C13.7057 12.089 14.0941 11.9279 14.2345 11.589C14.3748 11.2502 14.2139 10.8618 13.8751 10.7214L13.522 10.5752C11.0733 9.66884 9.644 13.1246 12.015 14.2134L12.7213 14.5059C13.0477 14.6411 13.2032 15.0167 13.068 15.3432C13.0031 15.5 12.8797 15.6226 12.7207 15.6886C12.5616 15.7545 12.3876 15.755 12.2308 15.69L11.8778 15.5438C11.5388 15.4034 11.1506 15.5644 11.0101 15.9032C10.8698 16.242 11.0307 16.6305 11.3695 16.7708L11.7226 16.917C12.2081 17.1181 12.743 17.1168 13.2289 16.9156C14.8393 16.2655 14.8363 13.9325 13.2295 13.2788Z" fill="white"/>
<path d="M16.8013 16.5822C16.9804 17.2224 17.901 17.222 18.0799 16.5822L19.5741 11.2697C19.6733 10.9166 19.4676 10.5499 19.1145 10.4506C18.7612 10.3512 18.3948 10.5571 18.2955 10.9101L17.4406 13.9496L16.5858 10.9101C16.4865 10.5571 16.1197 10.3515 15.7667 10.4506C15.4136 10.5499 15.2079 10.9166 15.3072 11.2697L16.8013 16.5822Z" fill="white"/>
<path d="M30.4078 26.5129C30.4971 26.3973 30.5468 26.2538 30.5468 26.1074V1.38689C30.5468 0.622158 29.9246 0 29.1599 0H4.58367C3.81894 0 3.19678 0.622158 3.19678 1.38689V7.11567H1.99218C0.893692 7.11567 0 8.00936 0 9.10785V18.4047C0 19.5032 0.893692 20.3969 1.99218 20.3969H3.19685V32.6131C3.19685 33.3778 3.81901 34 4.58374 34H22.6543C22.8288 34 23.0004 33.9289 23.1238 33.8055L30.3523 26.577C30.3723 26.557 30.3905 26.5353 30.4078 26.5129ZM1.32812 18.4047V9.10785C1.32812 8.74168 1.62602 8.44379 1.99218 8.44379H23.3184C23.6846 8.44379 23.9824 8.74168 23.9824 9.10785V18.4047C23.9824 18.7708 23.6846 19.0687 23.3184 19.0687H1.99218C1.62602 19.0687 1.32812 18.7708 1.32812 18.4047ZM4.5249 32.6131V23.0532H7.51291C7.87967 23.0532 8.17697 22.7559 8.17697 22.3891C8.17697 22.0224 7.87967 21.7251 7.51291 21.7251H4.5249V20.3969H23.3184C24.4169 20.3969 25.3105 19.5032 25.3105 18.4047V9.10785C25.3105 8.00936 24.4169 7.11567 23.3184 7.11567H4.5249V1.38689C4.5249 1.35614 4.55293 1.32812 4.58367 1.32812H29.1599C29.1906 1.32812 29.2186 1.35614 29.2186 1.38689V25.4434H23.377C22.6122 25.4434 21.9901 26.0655 21.9901 26.8303V32.6719H4.58367C4.55293 32.6719 4.5249 32.6439 4.5249 32.6131ZM28.2795 26.7715L23.3183 31.7328V26.8303C23.3183 26.7995 23.3463 26.7715 23.377 26.7715H28.2795Z" fill="black"/>
<path d="M10.501 21.7251C10.1342 21.7251 9.83691 22.0224 9.83691 22.3892C9.83691 22.7559 10.1342 23.0532 10.501 23.0532H10.5014C10.8682 23.0532 11.1653 22.7559 11.1653 22.3892C11.1653 22.0224 10.8677 21.7251 10.501 21.7251Z" fill="black"/>
</svg>
