<svg width="31" height="34" viewBox="0 0 31 34" fill="none" xmlns="http://www.w3.org/2000/svg">
<path fill-rule="evenodd" clip-rule="evenodd" d="M23.377 26.1075C22.9795 26.1075 22.6542 26.4329 22.6542 26.8304V33.3361L29.8827 26.1075H23.377Z" fill="#E8EAF0"/>
<path fill-rule="evenodd" clip-rule="evenodd" d="M22.6541 26.8303C22.6541 26.4328 22.9794 26.1075 23.3769 26.1075H29.8826V1.38689C29.8826 0.989319 29.5571 0.664062 29.1597 0.664062H4.58355C4.18597 0.664062 3.86072 0.989319 3.86072 1.38689V32.6132C3.86072 33.0106 4.18597 33.336 4.58355 33.336H22.6541V26.8303Z" fill="white"/>
<path fill-rule="evenodd" clip-rule="evenodd" d="M24.6465 9.10784C24.6465 8.37744 24.0488 7.77979 23.3183 7.77979H1.99218C1.26172 7.77979 0.664062 8.37744 0.664062 9.10784V18.4047C0.664062 19.1352 1.26172 19.7329 1.99218 19.7329H23.3183C24.0487 19.7329 24.6465 19.1351 24.6465 18.4047V9.10784Z" fill="#FF0000"/>
<path d="M18.8892 10.4359H16.897C16.5303 10.4359 16.2329 10.7332 16.2329 11.1V16.4125C16.2329 16.7792 16.5303 17.0765 16.897 17.0765C17.2637 17.0765 17.561 16.7792 17.561 16.4125V14.4203H18.0176C18.3843 14.4203 18.6816 14.123 18.6816 13.7562C18.6816 13.3895 18.3843 13.0922 18.0176 13.0922H17.561V11.764H18.8892C19.2559 11.764 19.5532 11.4667 19.5532 11.1C19.5532 10.7332 19.2559 10.4359 18.8892 10.4359Z" fill="white"/>
<path d="M7.74939 10.436H6.42126C6.0545 10.436 5.7572 10.7333 5.7572 11.1V16.4125C5.7572 16.7793 6.0545 17.0766 6.42126 17.0766C6.78803 17.0766 7.08533 16.7793 7.08533 16.4125V14.4203H7.74939C8.84788 14.4203 9.74158 13.5267 9.74158 12.4282C9.74158 11.3297 8.84788 10.436 7.74939 10.436ZM7.74939 13.0923H7.08533V11.7642H7.74939C8.11555 11.7642 8.41345 12.0621 8.41345 12.4282C8.41345 12.7944 8.11562 13.0923 7.74939 13.0923Z" fill="white"/>
<path d="M12.9126 10.436H11.5845C11.2177 10.436 10.9204 10.7333 10.9204 11.1V16.4125C10.9204 16.7793 11.2177 17.0766 11.5845 17.0766H12.9126C14.0111 17.0766 14.9048 16.1829 14.9048 15.0844V12.4282C14.9048 11.3297 14.0111 10.436 12.9126 10.436ZM13.5767 15.0845C13.5767 15.4506 13.2788 15.7485 12.9126 15.7485H12.2485V11.7642H12.9126C13.2788 11.7642 13.5767 12.0621 13.5767 12.4282V15.0845Z" fill="white"/>
<path d="M30.4078 26.5129C30.4971 26.3973 30.5468 26.2538 30.5468 26.1074V1.38689C30.5468 0.622158 29.9246 0 29.1599 0H4.58367C3.81894 0 3.19678 0.622158 3.19678 1.38689V7.11567H1.99218C0.893692 7.11567 0 8.00936 0 9.10785V18.4047C0 19.5032 0.893692 20.3969 1.99218 20.3969H3.19685V32.6131C3.19685 33.3778 3.81901 34 4.58374 34H22.6543C22.8288 34 23.0004 33.9289 23.1238 33.8055L30.3523 26.577C30.3723 26.557 30.3905 26.5353 30.4078 26.5129ZM1.32812 18.4047V9.10785C1.32812 8.74168 1.62602 8.44379 1.99218 8.44379H23.3184C23.6846 8.44379 23.9824 8.74168 23.9824 9.10785V18.4047C23.9824 18.7708 23.6846 19.0687 23.3184 19.0687H1.99218C1.62602 19.0687 1.32812 18.7708 1.32812 18.4047ZM4.5249 32.6131V23.0532H7.51291C7.87967 23.0532 8.17697 22.7559 8.17697 22.3891C8.17697 22.0224 7.87967 21.7251 7.51291 21.7251H4.5249V20.3969H23.3184C24.4169 20.3969 25.3105 19.5032 25.3105 18.4047V9.10785C25.3105 8.00936 24.4169 7.11567 23.3184 7.11567H4.5249V1.38689C4.5249 1.35614 4.55293 1.32812 4.58367 1.32812H29.1599C29.1906 1.32812 29.2186 1.35614 29.2186 1.38689V25.4434H23.377C22.6122 25.4434 21.9901 26.0655 21.9901 26.8303V32.6719H4.58367C4.55293 32.6719 4.5249 32.6439 4.5249 32.6131ZM28.2795 26.7715L23.3183 31.7328V26.8303C23.3183 26.7995 23.3463 26.7715 23.377 26.7715H28.2795Z" fill="black"/>
<path d="M10.501 21.7251C10.1342 21.7251 9.83691 22.0224 9.83691 22.3892C9.83691 22.7559 10.1342 23.0532 10.501 23.0532H10.5014C10.8682 23.0532 11.1653 22.7559 11.1653 22.3892C11.1653 22.0224 10.8677 21.7251 10.501 21.7251Z" fill="black"/>
</svg>
