<svg width="31" height="34" viewBox="0 0 31 34" fill="none" xmlns="http://www.w3.org/2000/svg">
<path fill-rule="evenodd" clip-rule="evenodd" d="M23.378 26.1075C22.9805 26.1075 22.6552 26.4329 22.6552 26.8304V33.3361L29.8837 26.1075H23.378Z" fill="#E8EAF0"/>
<path fill-rule="evenodd" clip-rule="evenodd" d="M22.6551 26.8303C22.6551 26.4328 22.9804 26.1075 23.3779 26.1075H29.8835V1.38689C29.8835 0.989319 29.5581 0.664062 29.1607 0.664062H4.58452C4.18695 0.664062 3.86169 0.989319 3.86169 1.38689V32.6132C3.86169 33.0106 4.18695 33.336 4.58452 33.336H22.6551V26.8303Z" fill="white"/>
<path fill-rule="evenodd" clip-rule="evenodd" d="M24.6474 9.10784C24.6474 8.37744 24.0498 7.77972 23.3193 7.77972H1.99316C1.26269 7.77972 0.665039 8.37738 0.665039 9.10784V18.4048C0.665039 19.1352 1.26269 19.7329 1.99316 19.7329H23.3193C24.0497 19.7329 24.6474 19.1351 24.6474 18.4048V9.10784Z" fill="#008109"/>
<path d="M14.0367 15.7485H12.7086V11.1001C12.7086 10.7333 12.4113 10.436 12.0446 10.436C11.6779 10.436 11.3805 10.7333 11.3805 11.1001V16.4126C11.3805 16.7794 11.6779 17.0767 12.0446 17.0767H14.0367C14.4034 17.0767 14.7007 16.7794 14.7007 16.4126C14.7007 16.0458 14.4034 15.7485 14.0367 15.7485Z" fill="white"/>
<path d="M9.68518 10.5061C9.357 10.3421 8.95823 10.475 8.7942 10.8031L8.06002 12.2715L7.32583 10.8031C7.1618 10.475 6.76277 10.342 6.43486 10.5061C6.10688 10.6701 5.97393 11.069 6.13789 11.3971L7.31753 13.7564L6.13789 16.1156C5.97386 16.4437 6.10681 16.8425 6.43486 17.0066C6.53028 17.0543 6.63155 17.0769 6.73136 17.0769C6.97494 17.0769 7.20948 16.9423 7.32583 16.7096L8.06002 15.2413L8.7942 16.7096C8.91055 16.9423 9.14503 17.0769 9.38867 17.0769C9.48848 17.0769 9.58982 17.0543 9.68518 17.0066C10.0132 16.8426 10.1461 16.4437 9.98215 16.1156L8.8025 13.7564L9.98215 11.3971C10.1461 11.069 10.0132 10.6702 9.68518 10.5061Z" fill="white"/>
<path d="M17.7009 11.5981C17.856 11.5981 18.0017 11.6584 18.1114 11.7681C18.3708 12.0275 18.7911 12.0275 19.0506 11.7681C19.3099 11.5088 19.3099 11.0883 19.0506 10.829C18.69 10.4684 18.2108 10.27 17.701 10.27C17.1912 10.27 16.7119 10.4685 16.3514 10.829C15.6073 11.5731 15.6073 12.7839 16.3514 13.5281L17.7469 14.9236C17.9733 15.15 17.9733 15.5182 17.7469 15.7445C17.6374 15.8541 17.4915 15.9146 17.3365 15.9146C17.1814 15.9146 17.0357 15.8542 16.926 15.7446C16.6667 15.4852 16.2464 15.4852 15.9868 15.7446C15.7275 16.0039 15.7275 16.4244 15.9868 16.6837C16.3474 17.0442 16.8266 17.2427 17.3364 17.2427C17.8462 17.2427 18.3255 17.0441 18.686 16.6837C19.4301 15.9395 19.4301 14.7287 18.686 13.9845L17.2905 12.589C17.0642 12.3627 17.0642 11.9945 17.2905 11.7681C17.4 11.6584 17.5459 11.5981 17.7009 11.5981Z" fill="white"/>
<path d="M30.4087 26.5129C30.4981 26.3972 30.5477 26.2539 30.5477 26.1074V1.38689C30.5477 0.622158 29.9255 0 29.1608 0H4.58465C3.81992 0 3.19776 0.622158 3.19776 1.38689V7.11567H1.99309C0.894602 7.11567 0.000976562 8.00936 0.000976562 9.10785V18.4047C0.000976562 19.5032 0.894602 20.3969 1.99309 20.3969H3.19776V32.6131C3.19776 33.3778 3.81992 34 4.58465 34H22.6552C22.8298 34 23.0012 33.9289 23.1247 33.8055L30.3532 26.577C30.3733 26.557 30.3914 26.5353 30.4087 26.5129ZM1.3291 18.4047V9.10785C1.3291 8.74168 1.62693 8.44379 1.99309 8.44379H23.3192C23.6854 8.44379 23.9833 8.74168 23.9833 9.10785V18.4047C23.9833 18.7708 23.6854 19.0687 23.3192 19.0687H1.99309C1.62699 19.0687 1.3291 18.7708 1.3291 18.4047ZM4.52588 32.6131V23.0532H7.51388C7.88058 23.0532 8.17794 22.7559 8.17794 22.3891C8.17794 22.0224 7.88058 21.7251 7.51388 21.7251H4.52588V20.3969H23.3193C24.4178 20.3969 25.3115 19.5032 25.3115 18.4047V9.10785C25.3115 8.00936 24.4178 7.11567 23.3193 7.11567H4.52588V1.38689C4.52588 1.35614 4.5539 1.32812 4.58465 1.32812H29.1608C29.1916 1.32812 29.2196 1.35614 29.2196 1.38689V25.4434H23.378C22.6133 25.4434 21.9911 26.0655 21.9911 26.8303V32.6719H4.58465C4.5539 32.6719 4.52588 32.6439 4.52588 32.6131ZM28.2804 26.7715L23.3192 31.7327V26.8302C23.3192 26.7995 23.3473 26.7714 23.378 26.7714H28.2804V26.7715Z" fill="black"/>
<path d="M10.502 21.7251C10.1353 21.7251 9.83789 22.0224 9.83789 22.3892C9.83789 22.7559 10.1353 23.0532 10.502 23.0532H10.5024C10.8691 23.0532 11.1663 22.7559 11.1663 22.3892C11.1663 22.0224 10.8687 21.7251 10.502 21.7251Z" fill="black"/>
</svg>
