<svg width="40" height="40" viewBox="0 0 40 40" fill="none" xmlns="http://www.w3.org/2000/svg">
<circle cx="20" cy="20" r="19.5" fill="white" class='theme-primary-stroke'/>
<path d="M23.1998 27.6247C23.6416 27.6247 23.9998 27.2671 23.9998 26.826C23.9998 26.3849 23.6416 26.0273 23.1998 26.0273H20.7998V23.6312C20.7998 23.1901 20.4416 22.8325 19.9998 22.8325C19.558 22.8325 19.1998 23.1901 19.1998 23.6312V26.826C19.1998 27.2671 19.558 27.6247 19.9998 27.6247H23.1998Z" class="theme-primary-fill"/>
<path fill-rule="evenodd" clip-rule="evenodd" d="M20.7998 33.9697C24.3948 33.5711 27.1998 30.5197 27.1998 26.8261C27.1998 25.1314 26.609 23.5721 25.6227 22.3419L26.2196 21.746C26.5319 21.4341 26.5319 20.9284 26.2196 20.6165C25.9072 20.3046 25.4006 20.3046 25.0882 20.6165L24.4914 21.2124C23.4554 20.3846 22.1865 19.8362 20.7998 19.6825C20.5865 19.6825 19.9999 19.5938 19.1999 19.6825C17.8132 19.8363 16.5443 20.3846 15.5084 21.2124L14.9115 20.6165C14.5991 20.3046 14.0926 20.3046 13.7802 20.6165C13.4678 20.9284 13.4678 21.4341 13.7802 21.746L14.3771 22.3419C13.3907 23.5721 12.7999 25.1314 12.7999 26.8261C12.7999 30.5197 15.6049 33.5711 19.1999 33.9697C19.6265 34.017 20.5065 34.0022 20.7998 33.9697ZM19.9999 21.2353C16.912 21.2353 14.3999 23.7433 14.3999 26.8261C14.3999 29.9089 16.912 32.4169 19.9999 32.4169C23.0877 32.4169 25.5998 29.9089 25.5998 26.8261C25.5998 23.7433 23.0877 21.2353 19.9999 21.2353Z" class="theme-primary-fill"/>
<path d="M8.79999 9.99993H12C12.4418 9.99993 12.7999 10.3575 12.7999 10.7986C12.7999 11.2397 12.4418 11.5973 12 11.5973H11.2V14.7921H19.1999V11.5973H18.3999C17.9581 11.5973 17.5999 11.2397 17.5999 10.7986C17.5999 10.3575 17.9581 9.99993 18.3999 9.99993H21.5999C22.0417 9.99993 22.3998 10.3575 22.3998 10.7986C22.3998 11.2397 22.0417 11.5973 21.5999 11.5973H20.7999V14.7921H28.7998V11.5973H27.9998C27.558 11.5973 27.1998 11.2397 27.1998 10.7986C27.1998 10.3575 27.558 9.99993 27.9998 9.99993H31.1998C31.6416 9.99993 31.9997 10.3575 31.9997 10.7986C31.9997 11.2397 31.6416 11.5973 31.1998 11.5973H30.3998V15.5908C30.3998 16.0318 30.0416 16.3894 29.5998 16.3894H20.7999V19.6288C20.8888 20.0222 20.8543 20.7556 19.9999 20.7556C19.1999 20.7556 19.111 19.9867 19.1999 19.6288V16.3894H10.4C9.95817 16.3894 9.59998 16.0318 9.59998 15.5908V11.5973H8.79999C8.35818 11.5973 8 11.2397 8 10.7986C8 10.3575 8.35818 9.99993 8.79999 9.99993Z" class="theme-primary-fill"/>
</svg>
