<svg width="40" height="40" viewBox="0 0 40 40" fill="none" xmlns="http://www.w3.org/2000/svg">
<circle cx="20" cy="20" r="19.5" fill="white" class='theme-primary-stroke'/>
<g clip-path="url(#clip0_531_6111)">
<path d="M27.0781 22.1562C25.9818 22.1562 24.9682 22.5167 24.1492 23.125C22.8015 22.4375 21.3286 22.0625 19.9531 22.0625H17.1406C14.7027 22.0625 12.406 23.0313 10.6735 24.7904C8.94945 26.5409 8 28.8516 8 31.2969C8 31.6852 8.31481 32 8.70312 32H27.0781C29.792 32 32 29.792 32 27.0781C32 24.3642 29.792 22.1562 27.0781 22.1562ZM9.43719 30.5938C9.78945 26.6053 13.1099 23.4688 17.1406 23.4688H19.9531C20.9743 23.4688 22.0666 23.7193 23.1009 24.1824C22.5072 24.9955 22.1562 25.9965 22.1562 27.0781C22.1562 28.4541 22.724 29.6997 23.6373 30.5938H9.43719ZM27.0781 30.5938C25.1396 30.5938 23.5625 29.0166 23.5625 27.0781C23.5625 26.0527 24.004 25.1285 24.7067 24.4853C24.7091 24.4831 24.7115 24.4807 24.7139 24.4784C25.3387 23.9097 26.1686 23.5625 27.0781 23.5625C29.0166 23.5625 30.5938 25.1396 30.5938 27.0781C30.5938 29.0166 29.0166 30.5938 27.0781 30.5938Z" class="theme-primary-fill"/>
<path d="M28.4844 26.375H27.7812V25.6719C27.7812 25.2836 27.4664 24.9688 27.0781 24.9688C26.6898 24.9688 26.375 25.2836 26.375 25.6719V26.375H25.6719C25.2836 26.375 24.9688 26.6898 24.9688 27.0781C24.9688 27.4664 25.2836 27.7812 25.6719 27.7812H26.375V28.4844C26.375 28.8727 26.6898 29.1875 27.0781 29.1875C27.4664 29.1875 27.7812 28.8727 27.7812 28.4844V27.7812H28.4844C28.8727 27.7812 29.1875 27.4664 29.1875 27.0781C29.1875 26.6898 28.8727 26.375 28.4844 26.375Z" class="theme-primary-fill"/>
<path d="M18.5469 8C15.0575 8 12.2188 10.8388 12.2188 14.3281C12.2188 17.8175 15.0575 20.6562 18.5469 20.6562C22.0362 20.6562 24.875 17.8175 24.875 14.3281C24.875 10.8388 22.0362 8 18.5469 8ZM18.5469 19.25C15.833 19.25 13.625 17.042 13.625 14.3281C13.625 11.6142 15.833 9.40625 18.5469 9.40625C21.2608 9.40625 23.4688 11.6142 23.4688 14.3281C23.4688 17.042 21.2608 19.25 18.5469 19.25Z" class="theme-primary-fill"/>
</g>
<defs>
<clipPath id="clip0_531_6111">
<rect width="24" height="24" fill="white" transform="translate(8 8)"/>
</clipPath>
</defs>
</svg>
