<svg width="40" height="40" viewBox="0 0 40 40" fill="none" xmlns="http://www.w3.org/2000/svg">
<circle cx="20" cy="20" r="19.5" fill="white" class='theme-primary-stroke'/>
<rect x="18" y="12" width="11" height="2" rx="1" class="theme-primary-fill"/>
<rect x="18" y="22" width="11" height="2" rx="1" class="theme-primary-fill"/>
<rect x="18" y="16" width="9" height="2" rx="1" class="theme-primary-fill"/>
<rect x="18" y="26" width="9" height="2" rx="1" class="theme-primary-fill"/>
<path fill-rule="evenodd" clip-rule="evenodd" d="M14.75 24.25H12.25V26.75H14.75V24.25ZM12.25 23C11.5596 23 11 23.5596 11 24.25V26.75C11 27.4404 11.5596 28 12.25 28H14.75C15.4404 28 16 27.4404 16 26.75V24.25C16 23.5596 15.4404 23 14.75 23H12.25Z" class="theme-primary-fill"/>
<path fill-rule="evenodd" clip-rule="evenodd" d="M14.75 14.25H12.25V16.75H14.75V14.25ZM12.25 13C11.5596 13 11 13.5596 11 14.25V16.75C11 17.4404 11.5596 18 12.25 18H14.75C15.4404 18 16 17.4404 16 16.75V14.25C16 13.5596 15.4404 13 14.75 13H12.25Z" class="theme-primary-fill"/>
</svg>
