<svg width="40" height="40" viewBox="0 0 40 40" fill="none" xmlns="http://www.w3.org/2000/svg">
<circle cx="20" cy="20" r="19.5" fill="white" class='theme-primary-stroke'/>
<g clip-path="url(#clip0_531_6144)">
<path d="M10.7154 30.1977C11.4194 30.4 12.1693 30.0448 12.3912 29.4055L13.776 25.4178H19.5005L20.8851 29.4055C21.0649 29.9233 21.5912 30.2544 22.1587 30.2544C22.2919 30.2544 22.4273 30.2362 22.561 30.1977C23.2646 29.9961 23.655 29.3144 23.4331 28.6751L22.2996 25.411C22.9713 25.3472 23.4949 24.8312 23.4949 24.204C23.4949 23.5338 22.8969 22.9903 22.1591 22.9903H21.4591L17.9121 12.7758C17.7368 12.2707 17.2211 11.9272 16.6382 11.9272C16.0552 11.9272 15.5396 12.2707 15.3642 12.7758L11.8172 22.9903H11.1171C10.3793 22.9903 9.78125 23.5338 9.78125 24.204C9.78125 24.8312 10.3049 25.3472 10.9766 25.411L9.8431 28.6751C9.62149 29.3144 10.0118 29.9961 10.7154 30.1977ZM16.6383 17.175L18.6576 22.9903H14.6189L16.6383 17.175Z" class="theme-primary-fill"/>
<path d="M26.3351 9.30908C25.5849 9.30908 24.9767 9.88974 24.9767 10.6058V12.0324H23.4822C22.732 12.0324 22.1238 12.613 22.1238 13.3291C22.1238 14.0451 22.732 14.6258 23.4822 14.6258H24.9767V16.0524C24.9767 16.7684 25.5849 17.3491 26.3351 17.3491C27.0854 17.3491 27.6936 16.7684 27.6936 16.0524V14.6258H29.1882C29.9385 14.6258 30.5466 14.0451 30.5466 13.3291C30.5466 12.613 29.9385 12.0324 29.1882 12.0324H27.6936V10.6058C27.6936 9.88961 27.0854 9.30908 26.3351 9.30908Z" class="theme-primary-fill"/>
</g>
<defs>
<clipPath id="clip0_531_6144">
<rect width="22" height="22" fill="white" transform="translate(9 9)"/>
</clipPath>
</defs>
</svg>
