<svg width="40" height="40" viewBox="0 0 40 40" fill="none" xmlns="http://www.w3.org/2000/svg">
<circle cx="20" cy="20" r="19.5" fill="white" class="theme-primary-stroke"/>
<path d="M10.945 29.9431C11.6569 30.1458 12.4153 29.7898 12.6397 29.1488L14.0401 25.1507H19.8292L21.2294 29.1488C21.4112 29.6679 21.9435 29.9999 22.5174 29.9999C22.6521 29.9999 22.789 29.9817 22.9243 29.9431C23.6358 29.741 24.0305 29.0574 23.8061 28.4165L22.6599 25.1439C23.3391 25.0799 23.8687 24.5626 23.8687 23.9338C23.8687 23.2618 23.2639 22.7168 22.5178 22.7168H21.8099L18.2229 12.4758C18.0455 11.9694 17.5241 11.625 16.9345 11.625C16.345 11.625 15.8235 11.9694 15.6462 12.4758L12.0592 22.7168H11.3512C10.6051 22.7168 10.0002 23.2618 10.0002 23.9338C10.0002 24.5626 10.5298 25.0799 11.2091 25.1439L10.0628 28.4165C9.83868 29.0574 10.2334 29.741 10.945 29.9431ZM16.9347 16.8864L18.9767 22.7168H14.8925L16.9347 16.8864Z" class="theme-primary-fill"/>
<path d="M27.0833 17.3636L27.0833 12.1727L29.0042 14.2681C29.232 14.5167 29.6014 14.5167 29.8292 14.2681C30.0569 14.0197 30.0569 13.6167 29.8292 13.3682L26.9125 10.1864C26.6847 9.93787 26.3154 9.93787 26.0875 10.1864L23.1709 13.3682C23.057 13.4925 23 13.6553 23 13.8182C23 13.9811 23.057 14.1439 23.1709 14.2681C23.3987 14.5167 23.768 14.5167 23.9958 14.2681L25.9167 12.1727L25.9167 17.3636C25.9167 17.7151 26.1778 18 26.5 18C26.8222 18 27.0833 17.7151 27.0833 17.3636Z" class="theme-primary-fill"/>
</svg>
