<svg width="40" height="40" viewBox="0 0 40 40" fill="none" xmlns="http://www.w3.org/2000/svg">
<circle cx="20" cy="20" r="19.5" fill="white" class="theme-primary-stroke"/>
<path d="M10.6235 20.1092H10.625C11.0127 20.1092 11.3273 19.7954 11.3282 19.4075C11.3331 17.0986 12.2352 14.9277 13.8682 13.2948C14.1428 13.0202 14.1428 12.575 13.8682 12.3004C13.5936 12.0258 13.1484 12.0258 12.8738 12.3004C10.976 14.1981 9.92764 16.7211 9.92188 19.4045C9.92103 19.7928 10.2352 20.1083 10.6235 20.1092Z" class="theme-primary-fill"/>
<path d="M28.6719 19.4075C28.6727 19.7953 28.9873 20.1092 29.375 20.1092H29.3766C29.7649 20.1083 30.079 19.7928 30.0782 19.4045C30.0724 16.7211 29.0241 14.1982 27.1263 12.3004C26.8517 12.0258 26.4065 12.0258 26.1319 12.3004C25.8573 12.5749 25.8573 13.0202 26.1319 13.2948C27.7648 14.9277 28.6669 17.0986 28.6719 19.4075Z" class="theme-primary-fill"/>
<path d="M21.7349 27.9244C20.5837 28.1584 19.4162 28.1584 18.265 27.9244C17.8844 27.8469 17.5132 28.0929 17.4359 28.4734C17.3586 28.854 17.6044 29.2252 17.9849 29.3025C18.6535 29.4384 19.3267 29.5063 20 29.5063C20.6732 29.5063 21.3464 29.4384 22.015 29.3025C22.3956 29.2252 22.6413 28.8541 22.564 28.4734C22.4867 28.0929 22.1154 27.847 21.7349 27.9244Z" class="theme-primary-fill"/>
<path d="M24.0527 13.4509L23.6172 11.7044C23.4203 10.9144 22.8736 10.288 22.1665 9.97284C22.4265 9.57047 22.5781 9.09183 22.5781 8.57813C22.5781 7.15655 21.4216 6 20 6C18.5784 6 17.4219 7.15655 17.4219 8.57813C17.4219 9.09183 17.5734 9.57047 17.8334 9.97289C17.1263 10.288 16.5797 10.9144 16.3827 11.7044L15.9473 13.4509C15.8594 13.8033 15.9372 14.1696 16.1609 14.4558C16.3845 14.742 16.7211 14.9062 17.0843 14.9062H22.9156C23.2788 14.9062 23.6154 14.742 23.839 14.4558C24.0627 14.1696 24.1405 13.8033 24.0527 13.4509ZM20 7.40625C20.6462 7.40625 21.1719 7.93195 21.1719 8.57813C21.1719 9.2243 20.6462 9.75 20 9.75C19.3538 9.75 18.8281 9.2243 18.8281 8.57813C18.8281 7.93195 19.3538 7.40625 20 7.40625ZM17.3843 13.5L17.7472 12.0446C17.8776 11.5215 18.3452 11.1563 18.8843 11.1563H21.1157C21.6548 11.1563 22.1224 11.5215 22.2528 12.0446L22.6157 13.5H17.3843Z" class="theme-primary-fill"/>
<path d="M15.7053 26.7982C15.5083 26.0081 14.9617 25.3817 14.2546 25.0666C14.5146 24.6642 14.6662 24.1856 14.6662 23.6719C14.6662 22.2503 13.5096 21.0938 12.0881 21.0938C10.6665 21.0938 9.50993 22.2503 9.50993 23.6719C9.50993 24.1856 9.66152 24.6642 9.92149 25.0666C9.21438 25.3817 8.66777 26.0082 8.4708 26.7982L8.03534 28.5447C7.94744 28.8971 8.0253 29.2634 8.24894 29.5496C8.47254 29.8358 8.80915 30 9.17238 30H15.0037C15.3669 30 15.7035 29.8358 15.9272 29.5496C16.1508 29.2634 16.2287 28.8971 16.1408 28.5447L15.7053 26.7982ZM12.0881 22.5C12.7342 22.5 13.2599 23.0257 13.2599 23.6719C13.2599 24.318 12.7342 24.8438 12.0881 24.8438C11.4419 24.8438 10.9162 24.318 10.9162 23.6719C10.9162 23.0257 11.4419 22.5 12.0881 22.5ZM9.47238 28.5938L9.83529 27.1384C9.96565 26.6153 10.4333 26.25 10.9723 26.25H13.2038C13.7428 26.25 14.2105 26.6153 14.3409 27.1384L14.7037 28.5938H9.47238Z" class="theme-primary-fill"/>
<path d="M31.9646 28.5447L31.5292 26.7982C31.3322 26.0082 30.7855 25.3818 30.0785 25.0666C30.3384 24.6642 30.49 24.1856 30.49 23.6719C30.49 22.2503 29.3335 21.0938 27.9119 21.0938C26.4903 21.0938 25.3338 22.2503 25.3338 23.6719C25.3338 24.1856 25.4854 24.6642 25.7453 25.0666C25.0382 25.3817 24.4916 26.0081 24.2947 26.7982L23.8592 28.5446C23.7713 28.8971 23.8492 29.2634 24.0728 29.5496C24.2964 29.8358 24.633 30 24.9963 30H30.8276C31.1908 30 31.5274 29.8358 31.7511 29.5496C31.9747 29.2634 32.0525 28.8971 31.9646 28.5447ZM27.9119 22.5C28.5581 22.5 29.0838 23.0258 29.0838 23.6719C29.0838 24.3181 28.5581 24.8438 27.9119 24.8438C27.2657 24.8438 26.74 24.3181 26.74 23.6719C26.74 23.0258 27.2657 22.5 27.9119 22.5ZM25.2962 28.5938L25.6591 27.1384C25.7895 26.6153 26.2571 26.25 26.7962 26.25H29.0276C29.5667 26.25 30.0343 26.6153 30.1647 27.1384L30.5276 28.5938H25.2962Z" class="theme-primary-fill"/>
<path d="M21.8466 18.0853L18.9146 21.0172L18.1534 20.256C17.8789 19.9815 17.4337 19.9815 17.1591 20.256C16.8845 20.5306 16.8845 20.9758 17.1591 21.2504L18.4175 22.5088C18.5548 22.6461 18.7347 22.7148 18.9146 22.7148C19.0945 22.7148 19.2745 22.6461 19.4118 22.5088L22.8409 19.0797C23.1155 18.8052 23.1155 18.3599 22.8409 18.0853C22.5663 17.8108 22.1211 17.8108 21.8466 18.0853Z" class="theme-primary-fill"/>
</svg>
