<svg width="40" height="40" viewBox="0 0 40 40" fill="none" xmlns="http://www.w3.org/2000/svg">
<circle cx="20" cy="20" r="19.5" fill="white" class="theme-primary-stroke"/>
<path d="M10.945 29.9431C11.6569 30.1458 12.4153 29.7898 12.6397 29.1488L14.0401 25.1507H19.8292L21.2294 29.1488C21.4112 29.6679 21.9435 29.9999 22.5174 29.9999C22.6521 29.9999 22.789 29.9817 22.9243 29.9431C23.6358 29.741 24.0305 29.0574 23.8061 28.4165L22.6599 25.1439C23.3391 25.0799 23.8687 24.5626 23.8687 23.9338C23.8687 23.2618 23.2639 22.7168 22.5178 22.7168H21.8099L18.2229 12.4758C18.0455 11.9694 17.5241 11.625 16.9345 11.625C16.345 11.625 15.8235 11.9694 15.6462 12.4758L12.0592 22.7168H11.3512C10.6051 22.7168 10.0002 23.2618 10.0002 23.9338C10.0002 24.5626 10.5298 25.0799 11.2091 25.1439L10.0628 28.4165C9.83868 29.0574 10.2334 29.741 10.945 29.9431ZM16.9347 16.8864L18.9767 22.7168H14.8925L16.9347 16.8864Z" class="theme-primary-fill"/>
<path d="M24.8192 16C25.0689 16 25.3188 15.9072 25.5092 15.7214L29.7142 11.6235C30.0953 11.2522 30.0953 10.65 29.7142 10.2785C29.3331 9.90716 28.7152 9.90716 28.334 10.2785L24.8191 13.704L23.666 12.5801C23.2849 12.2087 22.667 12.2087 22.2858 12.5801C21.9047 12.9514 21.9047 13.5536 22.2858 13.9251L24.1291 15.7214C24.3197 15.9072 24.5694 16 24.8192 16Z" class="theme-primary-fill"/>
</svg>
