<svg width="40" height="40" viewBox="0 0 40 40" fill="none" xmlns="http://www.w3.org/2000/svg">
<circle cx="20" cy="20" r="19.5" fill="white" class="theme-primary-stroke"/>
<path d="M27.8984 19.8511C27.254 19.3199 26.373 19.054 25.2553 19.054C24.1376 19.054 23.2598 19.3199 22.6221 19.8511C21.9843 20.3827 21.6655 21.2227 21.6655 22.3709V26.0992C21.6655 28.3105 22.8612 29.416 25.2522 29.416C26.3545 29.416 27.2321 29.1505 27.8855 28.619C28.5383 28.0878 28.8649 27.2478 28.8649 26.0992V22.3708C28.865 21.2228 28.5428 20.3827 27.8984 19.8511ZM26.7308 26.0991C26.7308 27.0248 26.238 27.4875 25.2524 27.4875C24.2838 27.4875 23.7998 27.0247 23.7998 26.0991V22.3708C23.7998 21.4451 24.2838 20.9824 25.2524 20.9824C26.238 20.9824 26.7308 21.4452 26.7308 22.3708V26.0991Z" class="theme-primary-fill"/>
<path d="M24.9019 9.84921C24.6339 9.62655 24.3359 9.51489 24.0072 9.51489C23.5833 9.51489 23.2785 9.69499 23.092 10.0549L13.9381 28.7989C13.8702 28.9705 13.8364 29.1162 13.8364 29.236C13.8364 29.5272 13.953 29.7887 14.1867 30.0202C14.4201 30.2515 14.7097 30.3672 15.0557 30.3672C15.5643 30.3672 15.895 30.1784 16.0477 29.8015L25.2024 11.1346C25.2699 10.9976 25.304 10.8433 25.304 10.6719C25.304 10.3466 25.1699 10.0722 24.9019 9.84921Z" class="theme-primary-fill"/>
<path d="M16.4047 11.3405C15.7603 10.8094 14.8793 10.5435 13.7617 10.5435C12.6438 10.5435 11.7662 10.8094 11.1284 11.3405C10.4906 11.8721 10.1719 12.7121 10.1719 13.8603V17.5886C10.1719 18.7372 10.4905 19.5772 11.1284 20.1084C11.766 20.64 12.6438 20.9055 13.7617 20.9055C14.8793 20.9055 15.7604 20.6399 16.4047 20.1084C17.0492 19.5773 17.3713 18.7373 17.3713 17.5886V13.8603C17.3713 12.7121 17.0491 11.8721 16.4047 11.3405ZM15.2372 17.5886C15.2372 18.5142 14.7442 18.977 13.7587 18.977C12.7901 18.977 12.3062 18.5142 12.3062 17.5886V13.8603C12.3062 12.9346 12.7901 12.4719 13.7587 12.4719C14.7442 12.4719 15.2372 12.9346 15.2372 13.8603V17.5886Z" class="theme-primary-fill"/>
</svg>
