<svg width="40" height="40" viewBox="0 0 40 40" fill="none" xmlns="http://www.w3.org/2000/svg">
<circle cx="20" cy="20" r="19.5" fill="white" class="theme-primary-stroke"/>
<path d="M27.0791 9H16.4942C15.8157 9 15.1779 9.26387 14.6982 9.74301L11.744 12.6937C11.2642 13.1729 11 13.8099 11 14.4875V29.4632C11 30.862 12.1394 32 13.5399 32H27.0791C28.4797 32 29.619 30.862 29.619 29.4632V11.5369C29.6191 10.138 28.4797 9 27.0791 9ZM15.0919 11.2552V13.0711C15.0919 13.1542 15.0242 13.2217 14.9411 13.2217H13.123L15.0919 11.2552ZM28.2701 29.4632C28.2701 30.1191 27.7359 30.6527 27.0791 30.6527H13.5399C12.8832 30.6527 12.349 30.1192 12.349 29.4633V14.5691H14.9411C15.7682 14.5691 16.4409 13.897 16.4409 13.0711V10.3486C16.4586 10.3479 16.4763 10.3473 16.4942 10.3473H27.0791C27.7358 10.3473 28.2701 10.8809 28.2701 11.5369V29.4632Z" class="theme-primary-fill"/>
<path d="M22.3673 27.043H18.2518C17.8793 27.043 17.5773 27.3446 17.5773 27.7167C17.5773 28.0887 17.8792 28.3904 18.2518 28.3904H22.3673C22.7398 28.3904 23.0418 28.0888 23.0418 27.7167C23.0418 27.3446 22.7398 27.043 22.3673 27.043Z" class="theme-primary-fill"/>
<path d="M24.1272 24.8267H16.4918C16.1193 24.8267 15.8173 25.1283 15.8173 25.5004C15.8173 25.8724 16.1192 26.1741 16.4918 26.1741H24.1272C24.4997 26.1741 24.8017 25.8724 24.8017 25.5004C24.8017 25.1283 24.4997 24.8267 24.1272 24.8267Z" class="theme-primary-fill"/>
<path d="M17.6575 23.5382C17.9728 23.6397 18.3086 23.4614 18.4079 23.1405L19.0279 21.1388H21.5912L22.2112 23.1405C22.2917 23.4005 22.5274 23.5667 22.7814 23.5667C22.8411 23.5667 22.9017 23.5575 22.9616 23.5382C23.2767 23.437 23.4514 23.0948 23.3521 22.7739L22.8446 21.1353C23.1453 21.1033 23.3798 20.8443 23.3798 20.5295C23.3798 20.193 23.112 19.9202 22.7816 19.9202H22.4682L20.88 14.7927C20.8015 14.5391 20.5706 14.3667 20.3095 14.3667C20.0485 14.3667 19.8176 14.5391 19.7391 14.7927L18.1509 19.9202H17.8374C17.507 19.9202 17.2392 20.193 17.2392 20.5295C17.2392 20.8443 17.4737 21.1033 17.7745 21.1353L17.2669 22.7739C17.1677 23.0948 17.3425 23.437 17.6575 23.5382ZM20.3096 17.001L21.2138 19.9202H19.4054L20.3096 17.001Z" class="theme-primary-fill"/>
<path d="M25.3519 14.7461H24.5418V13.9369C24.5418 13.5648 24.2398 13.2632 23.8672 13.2632C23.4948 13.2632 23.1927 13.5648 23.1927 13.9369V14.7461H22.3825C22.01 14.7461 21.708 15.0477 21.708 15.4198C21.708 15.7918 22.01 16.0935 22.3825 16.0935H23.1927V16.9026C23.1927 17.2747 23.4947 17.5763 23.8672 17.5763C24.2397 17.5763 24.5418 17.2747 24.5418 16.9026V16.0935H25.3519C25.7244 16.0935 26.0264 15.7918 26.0264 15.4198C26.0264 15.0477 25.7244 14.7461 25.3519 14.7461Z" class="theme-primary-fill"/>
</svg>
