<svg width="40" height="40" viewBox="0 0 40 40" fill="none" xmlns="http://www.w3.org/2000/svg">
<circle cx="20" cy="20" r="19.5" fill="white" class="theme-primary-stroke"/>
<path d="M15 24.6351C14.8743 21.1216 10.1251 21.1219 10 24.6342V24.6351C10.0395 25.754 11.5525 25.7522 11.5912 24.6342C11.5912 24.1031 11.9985 23.671 12.5 23.671C13.0011 23.671 13.4087 24.1035 13.4087 24.6351C13.4087 24.9927 13.2775 25.3289 13.0393 25.5816L10.2331 28.559C10.0055 28.8004 9.93746 29.1635 10.0606 29.4789C10.1837 29.7943 10.4739 30 10.7956 30H14.2044C15.2589 29.9585 15.2581 28.3529 14.2044 28.3118H12.7164L14.1645 26.7754C14.7033 26.2037 15 25.4436 15 24.6351Z" class="theme-primary-fill"/>
<path d="M14.2087 16.3154H13.2989V10.8423C13.2989 10.5017 13.1049 10.1945 12.8073 10.0642C12.5096 9.93374 12.167 10.0058 11.9393 10.2468L10.2333 12.0512C9.92224 12.3801 9.92224 12.9134 10.2333 13.2423C10.5443 13.5713 11.0485 13.5713 11.3596 13.2423L11.7061 12.8759V16.3154H10.7964C9.74082 16.3569 9.74161 17.959 10.7964 18H14.2087C15.2642 17.9586 15.2634 16.3565 14.2087 16.3154Z" class="theme-primary-fill"/>
<rect x="17" y="10" width="13" height="2" rx="1" class="theme-primary-fill"/>
<rect x="17" y="22" width="13" height="2" rx="1" class="theme-primary-fill"/>
<rect x="17" y="15" width="6" height="2" rx="1" class="theme-primary-fill"/>
<rect x="17" y="27" width="6" height="2" rx="1" class="theme-primary-fill"/>
</svg>
