<svg width="18" height="20" viewBox="0 0 18 20" fill="none" xmlns="http://www.w3.org/2000/svg">
<path d="M17.1429 5C17.1429 3.81839 16.1816 2.85714 15 2.85714H11.4286V2.14286C11.4286 0.96125 10.4673 0 9.28571 0H7.85714C6.67554 0 5.71429 0.96125 5.71429 2.14286V2.85714H2.14286C0.96125 2.85714 0 3.81839 0 5C0 5.94161 0.614464 6.73429 1.46036 7.02107L2.06893 17.9761C2.13232 19.1109 3.07196 20 4.20857 20H12.9341C14.0707 20 15.0104 19.1109 15.0737 17.9761L15.6823 7.02107C16.5286 6.73429 17.1429 5.94161 17.1429 5ZM7.14286 2.14286C7.14286 1.74911 7.46339 1.42857 7.85714 1.42857H9.28571C9.67946 1.42857 10 1.74911 10 2.14286V2.85714H7.14286V2.14286ZM12.9343 18.5714H4.20857C3.82982 18.5714 3.51625 18.275 3.49536 17.8966L2.89804 7.14286H14.2448L13.6475 17.8966C13.6266 18.275 13.313 18.5714 12.9343 18.5714ZM15 5.71429H2.14286C1.74911 5.71429 1.42857 5.39375 1.42857 5C1.42857 4.60625 1.74911 4.28571 2.14286 4.28571H15C15.3937 4.28571 15.7143 4.60625 15.7143 5C15.7143 5.39375 15.3937 5.71429 15 5.71429ZM9.28571 10.7143V15C9.28571 15.3945 8.96589 15.7143 8.57143 15.7143C8.17696 15.7143 7.85714 15.3945 7.85714 15V10.7143C7.85714 10.3198 8.17696 10 8.57143 10C8.96589 10 9.28571 10.3198 9.28571 10.7143ZM12.1429 10.7143V15C12.1429 15.3945 11.823 15.7143 11.4286 15.7143C11.0341 15.7143 10.7143 15.3945 10.7143 15V10.7143C10.7143 10.3198 11.0341 10 11.4286 10C11.823 10 12.1429 10.3198 12.1429 10.7143ZM6.42857 10.7143V15C6.42857 15.3945 6.10875 15.7143 5.71429 15.7143C5.31982 15.7143 5 15.3945 5 15V10.7143C5 10.3198 5.31982 10 5.71429 10C6.10875 10 6.42857 10.3198 6.42857 10.7143Z" fill="black"/>
</svg>
