<svg width="27" height="20" viewBox="0 0 27 20" fill="none" xmlns="http://www.w3.org/2000/svg">
<path d="M16.6439 10.2236L18.1585 8.70905C18.2687 9.12134 18.3333 9.55238 18.3333 9.99905C18.3333 12.7561 16.0904 14.999 13.3333 14.999C12.8866 14.999 12.4556 14.9345 12.0433 14.8242L13.5579 13.3097C15.2139 13.1967 16.531 11.8797 16.6439 10.2236ZM26.5616 9.59426C26.4591 9.40988 25.0054 6.8626 22.1637 4.70386L20.951 5.91656C23.0231 7.4401 24.336 9.21697 24.8529 10.0003C23.8651 11.5043 19.9906 16.6657 13.3333 16.6657C12.335 16.6657 11.4066 16.538 10.5331 16.3342L9.16373 17.7036C10.4227 18.0897 11.8064 18.3324 13.3333 18.3324C22.0568 18.3324 26.3818 10.7274 26.5616 10.4038C26.7016 10.152 26.7016 9.84613 26.5616 9.59426ZM23.0891 1.42157L4.75582 19.7549C4.59311 19.9176 4.37978 19.999 4.16666 19.999C3.95353 19.999 3.7402 19.9176 3.57749 19.7549C3.25187 19.4292 3.25187 18.9019 3.57749 18.5765L5.90998 16.244C2.13916 13.9676 0.223124 10.6165 0.105 10.4038C-0.0349999 10.152 -0.0349999 9.84592 0.105 9.59405C0.284791 9.27072 4.60978 1.66574 13.3333 1.66574C15.5889 1.66574 17.5427 2.18032 19.2129 2.94115L21.9108 0.243242C22.2364 -0.0823826 22.7637 -0.0823826 23.0891 0.243242C23.4145 0.568866 23.4147 1.09616 23.0891 1.42157ZM7.15269 15.0013L9.26248 12.8915C8.67977 12.074 8.33331 11.0772 8.33331 9.99905C8.33331 7.24197 10.5762 4.99906 13.3333 4.99906C14.4114 4.99906 15.4083 5.34552 16.2258 5.92802L17.9318 4.22198C16.5839 3.68219 15.0523 3.3324 13.3333 3.3324C6.67602 3.3324 2.80145 8.49384 1.81395 9.9978C2.44104 10.9482 4.24353 13.354 7.15269 15.0013ZM10.4723 11.6815L15.0158 7.13801C14.5202 6.84531 13.9495 6.66572 13.3333 6.66572C11.4954 6.66572 9.99997 8.16114 9.99997 9.99905C9.99997 10.6153 10.1796 11.1859 10.4723 11.6815Z" fill="black"/>
</svg>
