<svg width="16" height="16" viewBox="0 0 16 16" fill="none" xmlns="http://www.w3.org/2000/svg">
<path class="theme-primary-fill" fill-rule="evenodd" clip-rule="evenodd" d="M12.3719 11.0447L15.7251 14.398C16.0916 14.7645 16.0916 15.3587 15.7251 15.7251C15.3587 16.0916 14.7645 16.0916 14.398 15.7251L11.0447 12.3719C9.88915 13.2492 8.44766 13.77 6.88502 13.77C3.08253 13.77 0 10.6875 0 6.88502C0 3.08253 3.08253 0 6.88502 0C10.6875 0 13.77 3.08253 13.77 6.88502C13.77 8.44765 13.2493 9.88915 12.3719 11.0447ZM6.88502 11.8931C9.65094 11.8931 11.8932 9.65093 11.8932 6.88502C11.8932 4.1191 9.65094 1.87689 6.88502 1.87689C4.11911 1.87689 1.87689 4.1191 1.87689 6.88502C1.87689 9.65093 4.11911 11.8931 6.88502 11.8931Z" fill="#F98012"/>
</svg>
