<svg width="28" height="17" viewBox="0 0 28 17" fill="none" xmlns="http://www.w3.org/2000/svg">
<path d="M13.6 17C4.70199 17 0.290487 9.2429 0.1071 8.91289C-0.0357 8.65598 -0.0357 8.34381 0.1071 8.0869C0.290487 7.7571 4.70199 0 13.6 0C22.498 0 26.9095 7.7571 27.0929 8.08711C27.2357 8.34402 27.2357 8.65619 27.0929 8.9131C26.9095 9.2429 22.498 17 13.6 17ZM1.85024 8.49872C2.86131 10.0311 6.83102 15.3 13.6 15.3C20.3904 15.3 24.3425 10.0353 25.3498 8.50127C24.3387 6.96894 20.369 1.7 13.6 1.7C6.80956 1.7 2.85749 6.96469 1.85024 8.49872ZM13.6 13.6C10.7878 13.6 8.5 11.3122 8.5 8.5C8.5 5.68778 10.7878 3.4 13.6 3.4C16.4122 3.4 18.7 5.68778 18.7 8.5C18.7 11.3122 16.4122 13.6 13.6 13.6ZM13.6 5.1C11.7253 5.1 10.2 6.62533 10.2 8.5C10.2 10.3747 11.7253 11.9 13.6 11.9C15.4747 11.9 17 10.3747 17 8.5C17 6.62533 15.4747 5.1 13.6 5.1Z" fill="black"/>
</svg>
