<svg width="34" height="41" viewBox="0 0 34 41" fill="none" xmlns="http://www.w3.org/2000/svg">
<path d="M5.58372 5.23901H23.8066C25.9853 5.23901 27.7524 7.00607 27.7524 9.18479V36.3033C27.7524 38.482 25.9853 40.249 23.8066 40.249H5.58372C3.40501 40.249 1.63794 38.482 1.63794 36.3033V9.18479C1.63794 7.00607 3.40501 5.23901 5.58372 5.23901Z" class="theme-secondary-fill"/>
<path d="M10.3628 1.65466H28.5857C30.7644 1.65466 32.5314 3.42174 32.5314 5.60045V32.7189C32.5314 34.8976 30.7644 36.6647 28.5857 36.6647H10.3628C8.18406 36.6647 6.41699 34.8976 6.41699 32.7189V5.60045C6.41699 3.42174 8.18406 1.65466 10.3628 1.65466Z" fill="white"/>
<path fill-rule="evenodd" clip-rule="evenodd" d="M10.182 0.951904C7.73216 0.951904 5.72412 2.9499 5.72412 5.40974V32.8997C5.72412 35.3495 7.72212 37.3575 10.182 37.3575H28.7563C31.2061 37.3575 33.204 35.3595 33.204 32.8997V5.40974C33.204 2.95994 31.2061 0.951904 28.7563 0.951904H10.182ZM10.182 2.43785H28.7563C30.4129 2.43785 31.7281 3.75311 31.7281 5.40974V32.8997C31.7281 34.5563 30.4129 35.8716 28.7563 35.8716H10.182C8.52533 35.8716 7.21006 34.5563 7.21006 32.8997V5.40974C7.21006 3.75311 8.52533 2.43785 10.182 2.43785Z" fill="#133F3F"/>
<path fill-rule="evenodd" clip-rule="evenodd" d="M5.39289 4.54626C2.94309 4.54626 0.935059 6.54426 0.935059 9.0041V36.494C0.935059 38.9438 2.93305 40.9519 5.39289 40.9519H23.9672C26.3668 40.9519 28.3347 39.0342 28.415 36.6547L28.4451 35.9117L26.9792 36.2531L26.9391 36.6045C26.8889 38.2109 25.5937 39.476 23.9672 39.476H5.39289C3.73627 39.476 2.421 38.1607 2.421 36.5041V9.01414C2.421 7.35751 3.73627 6.04225 5.39289 6.04225H6.49731H6.19611V4.54626H6.49731H5.39289Z" fill="#133F3F"/>
<path fill-rule="evenodd" clip-rule="evenodd" d="M15.7041 31.6347C15.7041 32.0463 16.0354 32.3777 16.4471 32.3777H22.5113C22.923 32.3777 23.2543 32.0463 23.2543 31.6347C23.2543 31.2231 22.923 30.8917 22.5113 30.8917H16.4471C16.0354 30.8917 15.7041 31.2231 15.7041 31.6347Z" fill="#133F3F"/>
<path fill-rule="evenodd" clip-rule="evenodd" d="M3.33472 15.7812V17.2571H4.07768H6.47729H6.17608V15.7812H6.47729H4.07768H3.33472Z" fill="#133F3F"/>
<path fill-rule="evenodd" clip-rule="evenodd" d="M3.33472 18.8937V20.3696H4.07768H6.47729H6.17608V18.8937H6.47729H4.07768H3.33472Z" fill="#133F3F"/>
<path fill-rule="evenodd" clip-rule="evenodd" d="M3.33472 22.0061V23.482H4.07768H6.47729H6.17608V22.0061H6.47729H4.07768H3.33472Z" fill="#133F3F"/>
<path fill-rule="evenodd" clip-rule="evenodd" d="M3.33472 25.1185V26.5944H4.07768H6.47729H6.17608V25.1185H6.47729H4.07768H3.33472Z" fill="#133F3F"/>
<path fill-rule="evenodd" clip-rule="evenodd" d="M3.33472 28.2311V29.707H4.07768H6.47729H6.17608V28.2311H6.47729H4.07768H3.33472Z" fill="#133F3F"/>
<path d="M23.6718 23.3604C25.9929 21.0393 25.9929 17.2759 23.6718 14.9547C21.3506 12.6336 17.5872 12.6336 15.2661 14.9547C12.9449 17.2759 12.9449 21.0393 15.2661 23.3604C17.5872 25.6816 21.3506 25.6816 23.6718 23.3604Z" class="theme-primary-fill"/>
<path fill-rule="evenodd" clip-rule="evenodd" d="M19.4692 12.468C15.7845 12.468 12.7825 15.47 12.7825 19.1548C12.7825 22.8395 15.7845 25.8415 19.4692 25.8415C23.154 25.8415 26.156 22.8395 26.156 19.1548C26.156 15.47 23.154 12.468 19.4692 12.468ZM19.4692 13.9439C22.3507 13.9439 24.6801 16.2632 24.6801 19.1447C24.6801 22.0262 22.3608 24.3556 19.4692 24.3556C16.5777 24.3556 14.2684 22.0363 14.2684 19.1447C14.2684 16.2532 16.5877 13.9439 19.4692 13.9439Z" fill="#133F3F"/>
<path fill-rule="evenodd" clip-rule="evenodd" d="M22.5012 16.8254C22.2101 16.5343 21.7482 16.5343 21.4571 16.8254L17.8527 20.4298C17.5615 20.721 17.5615 21.1829 17.8527 21.474C18.1438 21.7652 18.6057 21.7652 18.8968 21.474L22.5012 17.8696C22.7924 17.5885 22.7924 17.1166 22.5012 16.8254Z" fill="#133F3F"/>
<path fill-rule="evenodd" clip-rule="evenodd" d="M16.4471 19.0343C16.156 19.3255 16.156 19.7973 16.4471 20.0785L17.8528 21.4841C18.1439 21.7752 18.6058 21.7752 18.8969 21.4841C19.1881 21.1929 19.1881 20.7311 18.8969 20.4399L17.4913 19.0343C17.2001 18.7431 16.7383 18.7431 16.4471 19.0343Z" fill="#133F3F"/>
</svg>
