<svg width="40" height="40" viewBox="0 0 40 40" fill="none" xmlns="http://www.w3.org/2000/svg">
<path d="M20 14.9219C23.9048 14.9219 27.0703 11.7564 27.0703 7.85156C27.0703 3.94674 23.9048 0.78125 20 0.78125C16.0952 0.78125 12.9297 3.94674 12.9297 7.85156C12.9297 11.7564 16.0952 14.9219 20 14.9219Z" class="theme-secondary-fill"/>
<path d="M9.28125 32.5938H5.09375C2.71094 32.5938 0.78125 34.5234 0.78125 36.9062V39.2187H13.5938V36.9062C13.5938 34.5234 11.6641 32.5938 9.28125 32.5938Z" class="theme-primary-fill"/>
<path d="M9.57812 32.5938L7.1875 34.9844L4.79688 32.5938H9.57812Z" fill="white"/>
<path d="M6.51562 25.0781H10.0078V26.8125C10.0078 27.7109 9.28125 28.4375 8.38281 28.4375H4.36719V27.2266C4.36719 26.0391 5.32812 25.0781 6.51562 25.0781Z" class="theme-secondary-fill"/>
<path d="M10.0078 28.4375V29.7734C10.0078 31.3281 8.74219 32.5938 7.1875 32.5938C5.63281 32.5938 4.36719 31.3281 4.36719 29.7734V28.4375H10.0078Z" fill="white"/>
<path d="M34.9062 32.5938H30.7188C28.3359 32.5938 26.4062 34.5234 26.4062 36.9062V39.2187H39.2188V36.9062C39.2188 34.5234 37.2891 32.5938 34.9062 32.5938Z" class="theme-primary-fill"/>
<path d="M35.2031 32.5938L32.8125 34.9844L30.4219 32.5938H35.2031Z" fill="white"/>
<path d="M32.1406 25.0781H35.6328V26.8125C35.6328 27.7109 34.9062 28.4375 34.0078 28.4375H30V27.2266C29.9922 26.0391 30.9531 25.0781 32.1406 25.0781Z" class="theme-secondary-fill"/>
<path d="M35.6328 28.4375V29.7734C35.6328 31.3281 34.3672 32.5938 32.8125 32.5938C31.2578 32.5938 29.9922 31.3281 29.9922 29.7734V28.4375H35.6328Z" fill="white"/>
<path d="M22.8437 30.2109H17.1562C13.9219 30.2109 11.2969 32.8359 11.2969 36.0703V39.2187H28.7109V36.0703C28.7031 32.8359 26.0859 30.2109 22.8437 30.2109Z" class="theme-primary-fill"/>
<path d="M23.25 30.2109L20 33.4609L16.75 30.2109H23.25Z" fill="white"/>
<path d="M19.0859 20H23.8281V22.3516C23.8281 23.5703 22.8359 24.5625 21.6172 24.5625H16.1719V22.9141C16.1719 21.3047 17.4766 20 19.0859 20Z" class="theme-secondary-fill"/>
<path d="M23.8281 24.5703V26.3828C23.8281 28.5 22.1094 30.2109 20 30.2109C17.8828 30.2109 16.1719 28.4922 16.1719 26.3828V24.5703H23.8281Z" fill="white"/>
<path d="M35.7266 31.875C36.1562 31.2812 36.4062 30.5547 36.4062 29.7734V25.0781C36.4062 24.6484 36.0547 24.2969 35.625 24.2969H32.1328C30.5156 24.2969 29.2031 25.6094 29.2031 27.2266V29.7734C29.2031 30.5547 29.4531 31.2812 29.8828 31.875C29.3516 31.9609 28.8359 32.1328 28.3594 32.3828C27.2734 30.7656 25.4922 29.6484 23.4531 29.4609C23.4453 29.4609 23.4375 29.4609 23.4297 29.4531C24.1641 28.6328 24.6094 27.5625 24.6094 26.3828V20C24.6094 19.5703 24.2578 19.2188 23.8281 19.2188H19.0859C17.0469 19.2188 15.3906 20.875 15.3906 22.9141V26.375C15.3906 27.5547 15.8359 28.6328 16.5703 29.4453C16.5625 29.4453 16.5547 29.4453 16.5469 29.4531C14.5 29.6406 12.7266 30.7578 11.6406 32.375C11.1641 32.125 10.6484 31.9531 10.1172 31.8672C10.5469 31.2734 10.7969 30.5469 10.7969 29.7656V25.0781C10.7969 24.6484 10.4453 24.2969 10.0156 24.2969H6.51562C4.89844 24.2969 3.58594 25.6094 3.58594 27.2266V29.7734C3.58594 30.5625 3.83594 31.2891 4.26562 31.875C1.85156 32.2734 0 34.375 0 36.9062V39.2188C0 39.6484 0.351562 40 0.78125 40H39.2188C39.6484 40 40 39.6484 40 39.2188V36.9062C40 34.375 38.1484 32.2734 35.7266 31.875ZM34.8516 29.7734C34.8516 30.8984 33.9375 31.8125 32.8125 31.8125C31.6875 31.8125 30.7734 30.8984 30.7734 29.7734V29.2188H34C34.2969 29.2188 34.5859 29.1641 34.8438 29.0625L34.8516 29.7734ZM33.3125 33.375L32.8125 33.875L32.3125 33.375H33.3125ZM30.7734 27.2266C30.7734 26.4766 31.3828 25.8594 32.1406 25.8594H34.8516V26.8125C34.8516 27.2813 34.4688 27.6562 34.0078 27.6562H30.7812V27.2266H30.7734ZM16.9531 25.3516H21.625C22.1406 25.3516 22.6328 25.2187 23.0547 24.9844V26.3828C23.0547 28.0625 21.6875 29.4297 20.0078 29.4297C18.3281 29.4297 16.9609 28.0625 16.9609 26.3828L16.9531 25.3516ZM21.3594 30.9922L20 32.3516L18.6406 30.9922H21.3594ZM16.9531 22.9141C16.9531 21.7344 17.9141 20.7812 19.0859 20.7812H23.0469V22.3516C23.0469 23.1406 22.4063 23.7812 21.6172 23.7812H16.9531V22.9141ZM9.22656 29.7734C9.22656 30.8984 8.3125 31.8125 7.1875 31.8125C6.0625 31.8125 5.14844 30.8984 5.14844 29.7734V29.2188H8.375C8.67188 29.2188 8.96094 29.1641 9.21875 29.0625V29.7734H9.22656ZM7.6875 33.375L7.1875 33.875L6.6875 33.375H7.6875ZM5.14844 27.2266C5.14844 26.4766 5.75781 25.8594 6.51562 25.8594H9.22656V26.8125C9.22656 27.2813 8.84375 27.6562 8.38281 27.6562H5.14844V27.2266ZM1.5625 36.9062C1.5625 35.1562 2.84375 33.6953 4.52344 33.4219L6.64062 35.5391C6.78906 35.6875 6.98438 35.7656 7.19531 35.7656C7.40625 35.7656 7.60156 35.6797 7.75 35.5391L9.86719 33.4219C10.2422 33.4844 10.6016 33.6016 10.9375 33.7812C10.6719 34.5 10.5312 35.2734 10.5312 36.0781V38.4375H1.5625V36.9062ZM26.4062 38.4375H13.5938H12.0781V36.875H17.1641C17.5938 36.875 17.9453 36.5234 17.9453 36.0938C17.9453 35.6641 17.5938 35.3125 17.1641 35.3125H12.1328C12.4688 33.0938 14.2422 31.3359 16.4766 31.0391L19.4453 34.0078C19.6016 34.1641 19.7969 34.2344 20 34.2344C20.2031 34.2344 20.3984 34.1562 20.5547 34.0078L23.5234 31.0391C26.0078 31.375 27.9219 33.5 27.9219 36.0703V38.4375H26.4062ZM38.4375 38.4375H29.4844V36.0703C29.4844 35.2656 29.3359 34.4922 29.0781 33.7734C29.4141 33.5937 29.7734 33.4766 30.1484 33.4141L32.2656 35.5312C32.4141 35.6797 32.6094 35.7578 32.8203 35.7578C33.0312 35.7578 33.2266 35.6719 33.375 35.5312L35.4922 33.4141C37.1719 33.6875 38.4531 35.1484 38.4531 36.8984L38.4375 38.4375Z" fill="#133F3F"/>
<path d="M16.1484 7.28125C15.8438 7.58594 15.8438 8.07812 16.1484 8.38281L18.3594 10.5938C18.5078 10.7422 18.7031 10.8203 18.9141 10.8203C19.125 10.8203 19.3203 10.7344 19.4688 10.5938L23.8516 6.21094C24.1562 5.90625 24.1562 5.41406 23.8516 5.10938C23.5469 4.80469 23.0547 4.80469 22.75 5.10938L18.9141 8.94531L17.2578 7.28906C16.9531 6.97656 16.4531 6.97656 16.1484 7.28125Z" fill="#133F3F"/>
<path d="M20 15.7031C24.3281 15.7031 27.8516 12.1797 27.8516 7.85157C27.8516 4.75782 26.0234 1.93751 23.1953 0.679694C22.8047 0.507819 22.3359 0.679694 22.1641 1.07813C21.9922 1.47657 22.1641 1.93751 22.5625 2.10938C24.8281 3.11719 26.2891 5.37501 26.2891 7.85157C26.2891 11.3203 23.4688 14.1406 20 14.1406C16.5312 14.1406 13.7109 11.3203 13.7109 7.85157C13.7109 5.38282 15.1641 3.13282 17.4141 2.11719C17.8047 1.93751 17.9844 1.47657 17.8047 1.08594C17.625 0.695319 17.1641 0.515631 16.7734 0.695319C13.9687 1.96094 12.1484 4.77344 12.1484 7.85157C12.1484 12.1797 15.6719 15.7031 20 15.7031Z" fill="#133F3F"/>
<path d="M20 1.5625H20.0234C20.4531 1.5625 20.8047 1.21875 20.8047 0.78125C20.8047 0.351562 20.4609 0 20.0234 0H20C19.5703 0 19.2188 0.351562 19.2188 0.78125C19.2188 1.21094 19.5703 1.5625 20 1.5625Z" fill="#133F3F"/>
<path d="M20 35.3125C19.7969 35.3125 19.5937 35.3984 19.4453 35.5391C19.2969 35.6797 19.2188 35.8828 19.2188 36.0938C19.2188 36.3047 19.3047 36.5 19.4453 36.6484C19.5859 36.7969 19.7891 36.875 20 36.875C20.2109 36.875 20.4063 36.7891 20.5547 36.6484C20.7031 36.5 20.7812 36.3047 20.7812 36.0938C20.7812 35.8828 20.6953 35.6875 20.5547 35.5391C20.4063 35.3984 20.2031 35.3125 20 35.3125Z" fill="#133F3F"/>
</svg>
