<svg width="44" height="40" viewBox="0 0 44 40" fill="none" xmlns="http://www.w3.org/2000/svg">
<path d="M37.5717 7.06433H0.849121V31.246C0.849121 33.0206 2.28406 34.464 4.06712 34.464H32.0867L29.3696 25.9138L37.5802 28.529V7.06433H37.5717Z" fill="white"/>
<path d="M4.06712 0.849121H34.3622C36.1367 0.849121 37.5717 2.28406 37.5717 4.05863V7.06436H0.849121V4.05863C0.849121 2.28406 2.29255 0.849121 4.06712 0.849121Z" class="theme-secondary-fill"/>
<path d="M29.3611 25.9138L33.5725 39.1424L35.0839 34.3706L39.8387 39.1254L42.6237 36.3405L37.8688 31.5856L42.5897 30.1252L29.3611 25.9138Z" class="theme-primary-fill"/>
<path d="M9.26342 19.0532C11.6315 19.0532 13.5513 17.1335 13.5513 14.7654C13.5513 12.3973 11.6315 10.4775 9.26342 10.4775C6.89532 10.4775 4.97559 12.3973 4.97559 14.7654C4.97559 17.1335 6.89532 19.0532 9.26342 19.0532Z" class="theme-primary-fill"/>
<path d="M9.26342 30.9488C11.6315 30.9488 13.5513 29.0291 13.5513 26.661C13.5513 24.2929 11.6315 22.3732 9.26342 22.3732C6.89532 22.3732 4.97559 24.2929 4.97559 26.661C4.97559 29.0291 6.89532 30.9488 9.26342 30.9488Z" class="theme-primary-fill"/>
<path d="M5.43408 3.63404C5.25577 3.2095 4.75481 2.99723 4.32178 3.17554C3.89725 3.35385 3.68498 3.8548 3.86328 4.28783C4.04159 4.71237 4.54254 4.92464 4.97557 4.74633C5.40011 4.55953 5.61238 4.05858 5.43408 3.63404Z" fill="#133F3F"/>
<path d="M8.33788 3.63404C8.15958 3.2095 7.65862 2.99723 7.22559 3.17554C6.80106 3.35385 6.58879 3.8548 6.76709 4.28783C6.9454 4.71237 7.44635 4.92464 7.87938 4.74633C8.30392 4.56802 8.51619 4.05858 8.33788 3.63404Z" fill="#133F3F"/>
<path d="M11.4116 3.63404C11.2333 3.2095 10.7324 2.99723 10.2993 3.17554C9.87479 3.35385 9.66252 3.8548 9.84082 4.28783C10.0191 4.71237 10.5201 4.92464 10.9531 4.74633C11.3777 4.56802 11.5899 4.05858 11.4116 3.63404Z" fill="#133F3F"/>
<path d="M43.2265 35.7376L39.4651 31.9762L42.8359 30.9319C43.184 30.8215 43.4303 30.4903 43.4303 30.1252C43.4303 29.7601 43.184 29.4205 42.8359 29.3101L38.4122 27.9007V21.7194C38.4122 21.2524 38.0301 20.8703 37.5631 20.8703C37.0962 20.8703 36.7141 21.2524 36.7141 21.7194V27.3657L29.6073 25.1072C28.962 24.9034 28.3337 25.5317 28.5375 26.177L30.9064 33.6149H4.06708C2.7595 33.6149 1.69815 32.5536 1.69815 31.246V7.91339H36.7226V14.2475C36.7226 14.7145 37.1046 15.0966 37.5716 15.0966C38.0386 15.0966 38.4207 14.7145 38.4207 14.2475V4.05859C38.4207 1.82551 36.5952 0 34.3621 0H4.06708C1.82551 0 0 1.82551 0 4.05859V31.246C0 33.4876 1.82551 35.3131 4.06708 35.3131H31.4583L32.7574 39.4056C32.8678 39.7538 33.1989 40 33.564 40C33.9291 40 34.2602 39.7538 34.3706 39.4056L35.4574 35.9669L39.2188 39.7283C39.55 40.0594 40.0849 40.0594 40.416 39.7283L43.201 36.9433C43.3623 36.782 43.4473 36.5697 43.4473 36.3405C43.4473 36.1112 43.3793 35.899 43.2265 35.7376ZM1.69815 4.05859C1.69815 2.7595 2.7595 1.69815 4.06708 1.69815H34.3621C35.6697 1.69815 36.7226 2.7595 36.7226 4.05859V6.21524H1.69815V4.05859ZM39.8387 37.9283L35.6867 33.7763C35.2452 33.3347 34.464 33.5215 34.2772 34.1159L33.5725 36.3405L30.6686 27.2214L39.7623 30.1167L37.6226 30.779C37.0197 30.9658 36.8329 31.747 37.2745 32.1885L41.4264 36.3405L39.8387 37.9283Z" fill="#133F3F"/>
<path d="M9.95113 9.67948C9.72188 9.64552 9.49263 9.62854 9.26338 9.62854C6.43595 9.62854 4.12646 11.9295 4.12646 14.7655C4.12646 17.6014 6.42746 19.9024 9.26338 19.9024C11.6917 19.9024 13.8144 18.1787 14.2899 15.7928C14.3833 15.3343 14.0861 14.8843 13.6276 14.7909C13.1691 14.6975 12.7191 14.9947 12.6257 15.4532C12.3031 17.0495 10.8851 18.2042 9.26338 18.2042C7.36994 18.2042 5.82462 16.6589 5.82462 14.7655C5.82462 12.872 7.36994 11.3267 9.26338 11.3267C9.40772 11.3267 9.56905 11.3352 9.72188 11.3607C10.1889 11.4201 10.6134 11.0974 10.6728 10.6305C10.7408 10.1719 10.4181 9.73892 9.95113 9.67948Z" fill="#133F3F"/>
<path d="M9.26343 31.7979C12.0909 31.7979 14.4003 29.4969 14.4003 26.661C14.4003 23.8335 12.0993 21.524 9.26343 21.524C6.42752 21.524 4.13501 23.8335 4.13501 26.661C4.13501 29.4969 6.43601 31.7979 9.26343 31.7979ZM9.26343 23.2307C11.1569 23.2307 12.7022 24.776 12.7022 26.6695C12.7022 28.5629 11.1569 30.1082 9.26343 30.1082C7.36999 30.1082 5.82467 28.5629 5.82467 26.6695C5.82467 24.776 7.36999 23.2307 9.26343 23.2307Z" fill="#133F3F"/>
<path d="M31.1357 11.7682H17.2788C16.8118 11.7682 16.4297 12.1503 16.4297 12.6173C16.4297 13.0843 16.8118 13.4663 17.2788 13.4663H31.1272C31.5942 13.4663 31.9763 13.0843 31.9763 12.6173C31.9763 12.1503 31.6027 11.7682 31.1357 11.7682Z" fill="#133F3F"/>
<path d="M31.9848 16.6928C31.9848 16.2258 31.6027 15.8438 31.1357 15.8438H17.2788C16.8118 15.8438 16.4297 16.2258 16.4297 16.6928C16.4297 17.1598 16.8118 17.5419 17.2788 17.5419H31.1272C31.6027 17.5419 31.9848 17.1598 31.9848 16.6928Z" fill="#133F3F"/>
<path d="M17.2788 25.5232H25.0988C25.5658 25.5232 25.9478 25.1411 25.9478 24.6741C25.9478 24.2072 25.5658 23.8251 25.0988 23.8251H17.2788C16.8118 23.8251 16.4297 24.2072 16.4297 24.6741C16.4297 25.1411 16.8118 25.5232 17.2788 25.5232Z" fill="#133F3F"/>
<path d="M17.2788 29.6073H25.9478C26.4148 29.6073 26.7969 29.2252 26.7969 28.7583C26.7969 28.2913 26.4148 27.9092 25.9478 27.9092H17.2788C16.8118 27.9092 16.4297 28.2913 16.4297 28.7583C16.4297 29.2252 16.8118 29.6073 17.2788 29.6073Z" fill="#133F3F"/>
<path d="M8.62658 13.6701C8.29544 13.339 7.76053 13.339 7.42939 13.6701C7.09825 14.0013 7.09825 14.5362 7.42939 14.8673L8.72847 16.1664C8.89829 16.3362 9.11056 16.4127 9.33132 16.4127C9.55208 16.4127 9.76435 16.3278 9.93416 16.1664L14.0607 12.0399C14.3918 11.7088 14.3918 11.1739 14.0607 10.8427C13.7295 10.5116 13.1946 10.5116 12.8635 10.8427L9.33981 14.3664L8.62658 13.6701Z" fill="#133F3F"/>
<path d="M38.2764 17.5079C38.0811 17.2023 37.6906 17.0664 37.3424 17.1598C37.0028 17.2532 36.7481 17.5589 36.7226 17.9155C36.6632 18.7051 37.6651 19.1297 38.1915 18.5523C38.4632 18.2721 38.4887 17.8306 38.2764 17.5079Z" fill="#133F3F"/>
</svg>
