<svg width="18" height="18" viewBox="0 0 18 18" fill="none" xmlns="http://www.w3.org/2000/svg">
<circle cx="9" cy="9" r="9" fill="#DC0000"/>
<path fill-rule="evenodd" clip-rule="evenodd" d="M8.70225 12.0835L8.70225 4.86724C8.70225 4.57054 8.94278 4.33002 9.23948 4.33002C9.53618 4.33002 9.77671 4.57054 9.77671 4.86724L9.77671 12.1317L12.0418 9.86658C12.261 9.64738 12.6164 9.64738 12.8356 9.86658C13.0548 10.0858 13.0548 10.4412 12.8356 10.6604L9.67084 13.8251L9.66062 13.8356C9.48274 14.0135 9.21519 14.047 9.00351 13.9362C8.99503 13.9318 8.98664 13.9271 8.97835 13.9222C8.93848 13.8987 8.90091 13.8698 8.86666 13.8355L8.8613 13.8301L5.69168 10.6605C5.47248 10.4413 5.47248 10.0859 5.69168 9.86668C5.91087 9.64748 6.26627 9.64748 6.48546 9.86668L8.70225 12.0835Z" fill="white"/>
</svg>
