<svg width="40" height="40" viewBox="0 0 40 40" fill="none" xmlns="http://www.w3.org/2000/svg">
<path d="M36.0938 16.4062H3.90625C2.17969 16.4062 0.78125 15.0078 0.78125 13.2812V3.90625C0.78125 2.17969 2.17969 0.78125 3.90625 0.78125H36.0938C37.8203 0.78125 39.2188 2.17969 39.2188 3.90625V13.2812C39.2188 15.0078 37.8203 16.4062 36.0938 16.4062Z" class="theme-secondary-fill"/>
<path d="M22.9535 39.2189L22.2582 36.6096L21.9144 36.4846C18.2269 35.1408 15.0707 32.6408 12.9222 29.3518C12.4613 28.6486 12.5082 27.7268 13.0316 27.0705C13.6722 26.2658 14.8285 26.0939 15.6722 26.6799L18.2113 28.4377L15.0863 16.7658C14.8285 15.8049 15.3988 14.8205 16.3597 14.5627C17.3207 14.3049 18.3051 14.8752 18.5629 15.8361L21.2738 25.9611L21.7269 27.6643L20.1254 21.7189C19.8676 20.758 20.4379 19.7736 21.3988 19.5158C22.3597 19.258 23.3441 19.8283 23.6019 20.7893L24.9691 25.8986L25.1957 26.7346L23.9066 21.9221C23.6488 20.9611 24.2191 19.9768 25.1801 19.7189C26.141 19.4611 27.1254 20.0314 27.3832 20.9924L28.4535 24.9689L28.6801 25.8049L27.9222 22.9768C27.6644 22.0158 28.2347 21.0314 29.1957 20.7736C30.1566 20.5158 31.141 21.0861 31.3988 22.0471L33.1957 28.7424C33.6332 30.3674 33.4301 32.0939 32.6254 33.5627L33.391 36.4143L22.9535 39.2189Z" class="theme-primary-fill"/>
<path d="M36.0938 0H3.90625C1.75 0 0 1.75 0 3.90625V13.2812C0 15.4375 1.75 17.1875 3.90625 17.1875H14.3828L16.8984 26.5859L16.1094 26.0391C14.9297 25.2188 13.3047 25.4609 12.4141 26.5859C11.6797 27.5078 11.6172 28.7891 12.2656 29.7812C14.4844 33.1797 17.7969 35.8125 21.6016 37.2109L22.1953 39.4219C22.25 39.625 22.3828 39.7891 22.5625 39.8984C22.6797 39.9688 22.8203 40 22.9531 40C23.0234 40 23.0859 39.9922 23.1562 39.9766L33.5781 37.1875C33.7812 37.1328 33.9453 37 34.0547 36.8203C34.1641 36.6406 34.1875 36.4297 34.1328 36.2266L33.4453 33.6641C34.2188 32.0703 34.3984 30.2656 33.9375 28.5469L32.1406 21.8516C31.9609 21.1875 31.5391 20.6328 30.9375 20.2891C30.3438 19.9453 29.6484 19.8516 28.9844 20.0312C28.6328 20.125 28.3125 20.2891 28.0391 20.5078C27.5625 19.3125 26.25 18.625 24.9766 18.9688C24.5469 19.0859 24.1562 19.3047 23.8516 19.6094C23.2266 18.8594 22.2031 18.5 21.2031 18.7656C20.8516 18.8594 20.5391 19.0234 20.2734 19.2344L19.7266 17.1953H28.7188C29.1484 17.1953 29.5 16.8438 29.5 16.4141C29.5 15.9844 29.1484 15.6328 28.7188 15.6328H19.2969C19.1172 14.9766 18.6953 14.4219 18.1016 14.0781C17.5078 13.7344 16.8125 13.6406 16.1484 13.8203C15.4844 14 14.9297 14.4219 14.5859 15.0234C14.4766 15.2188 14.3906 15.4219 14.3281 15.6328H3.90625C2.61719 15.6328 1.5625 14.5781 1.5625 13.2891V3.90625C1.5625 2.61719 2.61719 1.5625 3.90625 1.5625H36.0938C37.3828 1.5625 38.4375 2.61719 38.4375 3.90625V13.2812C38.4375 14.5703 37.3828 15.625 36.0938 15.625H35.7422C35.3125 15.625 34.9609 15.9766 34.9609 16.4062C34.9609 16.8359 35.3125 17.1875 35.7422 17.1875H36.0938C38.25 17.1875 40 15.4375 40 13.2812V3.90625C40 1.75 38.25 0 36.0938 0ZM15.9297 15.7969C16.0625 15.5625 16.2812 15.3906 16.5469 15.3203C16.8125 15.25 17.0859 15.2891 17.3203 15.4219C17.5547 15.5547 17.7266 15.7734 17.7969 16.0391L20.9688 27.8672C21.0625 28.2188 21.375 28.4453 21.7266 28.4453C21.7969 28.4453 21.8594 28.4375 21.9297 28.4219C22.3438 28.3125 22.5937 27.8828 22.4844 27.4688L20.8906 21.5234C20.7422 20.9844 21.0703 20.4219 21.6094 20.2812C22.1484 20.1328 22.7109 20.4609 22.8516 21L24.4453 26.9453C24.5391 27.2969 24.8516 27.5234 25.2031 27.5234C25.2734 27.5234 25.3359 27.5156 25.4062 27.5C25.8203 27.3906 26.0703 26.9609 25.9609 26.5469L24.6562 21.7188C24.5078 21.1797 24.8359 20.6172 25.375 20.4766C25.6406 20.4062 25.9141 20.4453 26.1484 20.5781C26.3828 20.7109 26.5547 20.9297 26.625 21.1953L27.9141 26.0078C28.0234 26.4219 28.4531 26.6719 28.8672 26.5625C29.2812 26.4531 29.5312 26.0234 29.4219 25.6094L28.6641 22.7812C28.5156 22.2422 28.8438 21.6797 29.3828 21.5391C29.6484 21.4688 29.9219 21.5078 30.1562 21.6406C30.3906 21.7734 30.5625 21.9922 30.6328 22.2578L32.4297 28.9531C32.8125 30.3906 32.6328 31.8984 31.9297 33.2031C31.8359 33.375 31.8125 33.5859 31.8594 33.7812L32.4219 35.8828L23.5156 38.2734L23.0156 36.4219C22.9531 36.1719 22.7656 35.9766 22.5312 35.8906L22.1875 35.7656C18.6797 34.4922 15.625 32.0625 13.5859 28.9375C13.3125 28.5156 13.3359 27.9688 13.6484 27.5703C14.0312 27.0938 14.7266 26.9844 15.2266 27.3359L17.7656 29.0938C17.8906 29.1797 18.0469 29.2344 18.2109 29.2344C18.2812 29.2344 18.3438 29.2266 18.4141 29.2109C18.8281 29.1016 19.0781 28.6719 18.9688 28.2578L15.8438 16.5859C15.7578 16.3047 15.7969 16.0312 15.9297 15.7969Z" fill="#133F3F"/>
<path d="M22.6484 5.46875V9.10938L20.1094 5.0625C19.9219 4.76563 19.5625 4.63281 19.2344 4.72656C18.8984 4.82031 18.6719 5.13281 18.6719 5.47656V11.7188C18.6719 12.1484 19.0234 12.5 19.4531 12.5C19.8828 12.5 20.2344 12.1484 20.2344 11.7188V8.19531L22.625 12.0078C22.8438 12.3516 23.2188 12.5078 23.5938 12.3984C23.9688 12.2891 24.2188 11.9375 24.2188 11.5078V5.46875C24.2188 5.03906 23.8672 4.6875 23.4375 4.6875C23.0078 4.6875 22.6484 5.03906 22.6484 5.46875Z" fill="#133F3F"/>
<path d="M8.88281 5.46875V11.7188C8.88281 12.1484 9.23438 12.5 9.66406 12.5C10.0938 12.5 10.4453 12.1484 10.4453 11.7188V5.46875C10.4453 5.03906 10.0938 4.6875 9.66406 4.6875C9.23438 4.6875 8.88281 5.03906 8.88281 5.46875Z" fill="#133F3F"/>
<path d="M14.6953 6.25C15.1641 6.25 15.6172 6.39062 16.0078 6.64844C16.3672 6.89062 16.8516 6.79688 17.0938 6.4375C17.3359 6.07813 17.2422 5.59375 16.8828 5.35156C16.2344 4.91406 15.4844 4.6875 14.6953 4.6875C12.5391 4.6875 10.7891 6.4375 10.7891 8.59375C10.7891 10.75 12.5391 12.5 14.6953 12.5C16.7422 12.5 18.1719 10.8906 18.1719 8.59375C18.1719 8.16406 17.8203 7.8125 17.3906 7.8125H15.5234C15.0937 7.8125 14.7422 8.16406 14.7422 8.59375C14.7422 9.02344 15.0937 9.375 15.5234 9.375H16.5234C16.3203 10.2031 15.7734 10.9375 14.6953 10.9375C13.4062 10.9375 12.3516 9.88281 12.3516 8.59375C12.3516 7.30469 13.3984 6.25 14.6953 6.25Z" fill="#133F3F"/>
<path d="M5.8672 10.9375C5.32813 10.9375 4.8047 10.75 4.42188 10.4141C4.09376 10.1328 3.60157 10.1641 3.32032 10.4922C3.03907 10.8203 3.07032 11.3125 3.39845 11.5938C4.06251 12.1797 4.94532 12.5 5.8672 12.5C7.18751 12.5 8.28907 11.6563 8.50001 10.5C8.65626 9.62501 8.25782 8.4922 6.6797 7.90627C5.91407 7.62502 5.19532 7.31252 4.97657 7.21877C4.8047 7.07814 4.81251 6.89064 4.82032 6.81251C4.83595 6.70314 4.91407 6.4297 5.32032 6.31252C6.20313 6.04689 7.01563 6.69533 7.03907 6.71095C7.3672 6.98439 7.85938 6.93752 8.13282 6.60939C8.41407 6.28127 8.3672 5.78908 8.03907 5.50783C7.97657 5.46095 6.57813 4.29689 4.8672 4.81252C4.00782 5.07033 3.39063 5.75002 3.27345 6.58595C3.16407 7.3672 3.50001 8.12502 4.15626 8.5547C4.18751 8.57814 5.16407 9.01564 6.13282 9.3672C6.40626 9.46877 7.03907 9.75002 6.95313 10.2188C6.89845 10.5781 6.46876 10.9375 5.8672 10.9375Z" fill="#133F3F"/>
<path d="M27.1953 4.6875C26.7656 4.6875 26.4141 5.03906 26.4141 5.46875V10.1094C26.4141 10.9375 26.8047 11.6094 27.5859 12.1094C27.9922 12.375 28.4609 12.5078 28.9609 12.5078H28.9687C29.3984 12.5078 29.8047 12.4141 30.1719 12.2266C31.0781 11.7734 31.5781 11.0156 31.5781 10.1094V5.46875C31.5781 5.03906 31.2266 4.6875 30.7969 4.6875C30.3672 4.6875 30.0156 5.03906 30.0156 5.46875V10.1016C30.0156 10.3203 29.9531 10.5859 29.4688 10.8281C29.3203 10.9063 29.1562 10.9375 28.9687 10.9375C28.7656 10.9375 28.5937 10.8906 28.4375 10.7891C28.0625 10.5469 27.9844 10.3516 27.9844 10.1094V5.46875C27.9766 5.03906 27.625 4.6875 27.1953 4.6875Z" fill="#133F3F"/>
<path d="M32.2266 17.1875C32.658 17.1875 33.0078 16.8377 33.0078 16.4062C33.0078 15.9748 32.658 15.625 32.2266 15.625C31.7951 15.625 31.4453 15.9748 31.4453 16.4062C31.4453 16.8377 31.7951 17.1875 32.2266 17.1875Z" fill="#133F3F"/>
<path d="M34.3203 4.6875H32.9688C32.7578 4.6875 32.5625 4.77344 32.4141 4.91406C32.2656 5.0625 32.1875 5.25781 32.1875 5.46875V11.7188C32.1875 12.1484 32.5391 12.5 32.9688 12.5C33.3984 12.5 33.75 12.1484 33.75 11.7188V9.78125C33.9531 9.78125 34.1562 9.78125 34.3203 9.78125C35.7422 9.78125 36.8984 8.64062 36.8984 7.23438C36.8984 5.82812 35.7422 4.6875 34.3203 4.6875ZM34.3203 8.21875C34.1562 8.21875 33.9609 8.21875 33.7578 8.21875C33.7578 7.85937 33.75 6.63281 33.75 6.25H34.3125C34.8672 6.25 35.3281 6.70312 35.3281 7.23438C35.3281 7.76562 34.875 8.21875 34.3203 8.21875Z" fill="#133F3F"/>
</svg>
