<svg width="22" height="22" viewBox="0 0 22 22" fill="none" xmlns="http://www.w3.org/2000/svg">
<circle cx="11" cy="11" r="11" fill="#133F3F"/>
<path fill-rule="evenodd" clip-rule="evenodd" d="M15.0913 17.8462H6.90872C6.0446 17.8462 5.34399 17.1456 5.34399 16.2812V11.2283C5.34399 10.4745 5.87726 9.84501 6.58709 9.69693V7.41572C6.58709 4.98252 8.56675 3.00269 11.0001 3.00269C13.4333 3.00269 15.413 4.98234 15.413 7.41572V9.69693C16.1225 9.84545 16.6558 10.4745 16.6558 11.2283V16.2812C16.6558 17.1455 15.9554 17.8462 15.0913 17.8462ZM10.9993 12.0198C10.2347 12.0198 9.61458 12.6396 9.61458 13.4045C9.61458 13.9172 9.89413 14.3638 10.3085 14.6033V16.1428H11.69V14.6033C12.1044 14.3639 12.384 13.9172 12.384 13.4045C12.384 12.6396 11.764 12.0198 10.9993 12.0198ZM8.88976 7.41578C8.88976 6.25196 9.83645 5.30519 11.0004 5.30519C12.164 5.30519 13.1107 6.25214 13.1108 7.41578V9.66345H8.88976V7.41578Z" fill="white"/>
</svg>
