<svg width="35" height="35" viewBox="0 0 35 35" fill="none" xmlns="http://www.w3.org/2000/svg">
<g filter="url(#filter0_d_1012_4264)">
<circle cx="17.5" cy="15.5" r="15.5" fill="white"/>
<circle cx="17.5" cy="15.5" r="15" stroke="#C4C4C4"/>
</g>
<path d="M10.7995 16.5758H10.8184C11.0335 16.5758 11.2364 16.4931 11.3894 16.3425C11.5441 16.1928 11.6316 15.9915 11.6365 15.7764C11.6472 15.3255 11.288 14.95 10.8372 14.9395C10.6163 14.9345 10.4052 15.0171 10.2473 15.1718C10.0926 15.3224 10.0051 15.5236 10.0002 15.7388C9.99038 16.1895 10.3487 16.5651 10.7995 16.5758Z" class="theme-primary-fill"/>
<path d="M11.2602 13.3431C11.3796 13.4078 11.5146 13.4421 11.6496 13.4421C11.9507 13.4421 12.2264 13.2785 12.3696 13.0143C12.6453 12.5062 12.9947 12.039 13.4062 11.6259C14.5476 10.4813 16.0653 9.85046 17.6803 9.84964C18.8073 9.85021 19.8863 10.1583 20.8236 10.7328L19.206 11.1817C18.7705 11.3025 18.5155 11.7533 18.6364 12.1889C18.7369 12.5511 19.0658 12.7885 19.4242 12.7885C19.4967 12.7885 19.5703 12.7787 19.6434 12.7585L22.8849 11.8591C23.3198 11.7384 23.5749 11.2883 23.4549 10.8533L22.5585 7.601C22.4384 7.16524 21.9878 6.90948 21.5523 7.02967C21.1167 7.14978 20.8609 7.60026 20.981 8.03585L21.2767 9.10887C21.0487 8.98754 20.8145 8.87684 20.5733 8.77866C19.652 8.40313 18.6792 8.21339 17.6835 8.21339H17.677C16.6805 8.21339 15.7085 8.40313 14.7872 8.77866C13.8332 9.16729 12.9791 9.73591 12.2476 10.4707C11.7248 10.9952 11.2822 11.5883 10.9312 12.2339C10.7161 12.6298 10.8634 13.128 11.2602 13.3431Z" class="theme-primary-fill"/>
<path d="M23.1725 18.9852C22.8967 19.4933 22.5474 19.9604 22.135 20.3744C20.9937 21.5181 19.476 22.1489 17.8618 22.1507C16.7349 22.1495 15.6559 21.8411 14.7186 21.2669L16.3358 20.8182C16.7712 20.6974 17.0263 20.2465 16.9054 19.811C16.7846 19.3757 16.334 19.1208 15.8983 19.2414L12.6568 20.1408C12.2219 20.2615 11.9668 20.7116 12.0868 21.1466L12.9832 24.399C13.0833 24.7619 13.4125 25 13.7715 25C13.8435 25 13.9167 24.9904 13.9894 24.9704C14.425 24.8503 14.6808 24.3998 14.5607 23.9642L14.2652 22.8922C14.4931 23.0131 14.7277 23.1228 14.9687 23.2208C15.8899 23.5964 16.8619 23.787 17.8576 23.787H17.8658C18.8615 23.787 19.8335 23.5964 20.7547 23.2208C21.7079 22.833 22.562 22.2636 23.2943 21.5289C23.8171 21.0044 24.2597 20.4112 24.6099 19.7656C24.7146 19.5742 24.7375 19.3533 24.6754 19.1431C24.614 18.9336 24.4741 18.761 24.2818 18.6571C24.1624 18.5916 24.0274 18.5573 23.8916 18.5573C23.5914 18.5574 23.3156 18.721 23.1725 18.9852Z" class="theme-primary-fill"/>
<path d="M24.7043 17.0601C24.7108 17.0609 24.7173 17.0609 24.7239 17.0609C24.9383 17.0609 25.1412 16.9783 25.295 16.8277C25.4488 16.678 25.5363 16.4768 25.5412 16.2615C25.5462 16.0431 25.466 15.8352 25.3154 15.6773C25.1641 15.5194 24.9603 15.4294 24.7419 15.4245C24.521 15.4195 24.3099 15.5023 24.152 15.6569C23.9982 15.8074 23.9106 16.0087 23.9057 16.2231C23.9057 16.2231 23.9057 16.2231 23.9057 16.2239C23.9008 16.4415 23.981 16.6493 24.1315 16.8072C24.2829 16.9652 24.4858 17.0552 24.7043 17.0601Z" class="theme-primary-fill"/>
<defs>
<filter id="filter0_d_1012_4264" x="0" y="0" width="35" height="35" filterUnits="userSpaceOnUse" color-interpolation-filters="sRGB">
<feFlood flood-opacity="0" result="BackgroundImageFix"/>
<feColorMatrix in="SourceAlpha" type="matrix" values="0 0 0 0 0 0 0 0 0 0 0 0 0 0 0 0 0 0 127 0" result="hardAlpha"/>
<feOffset dy="2"/>
<feGaussianBlur stdDeviation="1"/>
<feComposite in2="hardAlpha" operator="out"/>
<feColorMatrix type="matrix" values="0 0 0 0 0 0 0 0 0 0 0 0 0 0 0 0 0 0 0.3 0"/>
<feBlend mode="normal" in2="BackgroundImageFix" result="effect1_dropShadow_1012_4264"/>
<feBlend mode="normal" in="SourceGraphic" in2="effect1_dropShadow_1012_4264" result="shape"/>
</filter>
</defs>
</svg>
