<svg width="41" height="40" viewBox="0 0 41 40" fill="none" xmlns="http://www.w3.org/2000/svg">
<path d="M8 35.3359H4.66406V4.66406C4.66406 2.45313 6.45313 0.664062 8.66406 0.664062H31.3281C33.5391 0.664062 35.3281 2.45313 35.3281 4.66406V35.3281H8V35.3359Z" fill="white"/>
<path d="M8 35.3359H3.33594C1.85938 35.3359 0.671875 36.5313 0.671875 38V38.6641C0.671875 39.0313 0.96875 39.3281 1.33594 39.3281H38.6719C39.0391 39.3281 39.3359 39.0313 39.3359 38.6641V38C39.3359 36.5234 38.1406 35.3359 36.6719 35.3359H8Z" class="theme-secondary-fill"/>
<path d="M8.66406 3.33594H31.3281C32.0625 3.33594 32.6641 3.92969 32.6641 4.67187V15.3359C32.6641 16.0703 32.0703 16.6719 31.3281 16.6719H8.66406C7.92969 16.6719 7.32812 16.0781 7.32812 15.3359V4.66406C7.33594 3.92969 7.92969 3.33594 8.66406 3.33594Z" class="theme-secondary-fill"/>
<path d="M35.1094 30.1172L30.3906 34.8359C28.3047 36.9141 24.9297 36.9141 22.8437 34.8359L21.4297 33.4219L18.6016 30.5859C18.0703 30.0859 17.8437 29.3359 18.0234 28.625C18.2031 27.9141 18.7578 27.3594 19.4687 27.1797C20.1797 27 20.9297 27.2187 21.4297 27.7578L23.3125 29.6406L21.5156 27.8359L21.4297 27.7578L15.1563 21.4766C14.7344 21.0547 14.5703 20.4375 14.7266 19.8672C14.8828 19.2969 15.3281 18.8437 15.9063 18.6875C16.4844 18.5312 17.0937 18.6953 17.5156 19.1172L21.2031 22.8125C20.5703 22.1562 20.5781 21.1172 21.2188 20.4766C21.8594 19.8359 22.8984 19.8203 23.5547 20.4531L24.5 21.3984C24.0625 20.9844 23.8906 20.3594 24.0469 19.7812C24.1953 19.1953 24.6562 18.7422 25.2344 18.5859C25.8203 18.4297 26.4375 18.6016 26.8594 19.0391L27.3359 19.5156C26.6875 18.8672 26.6875 17.8047 27.3359 17.1563C27.9844 16.5078 29.0469 16.5078 29.6953 17.1563L30.8672 18.3359L32.75 20.2187L35.1094 22.5703C37.1875 24.6562 37.1875 28.0312 35.1094 30.1172Z" class="theme-primary-fill"/>
<path d="M8 23.3359H13.3359C13.7031 23.3359 14 23.6328 14 24V25.3359C14 25.7031 13.7031 26 13.3359 26H8C7.63281 26 7.33594 25.7031 7.33594 25.3359V24C7.33594 23.6328 7.63281 23.3359 8 23.3359Z" class="theme-primary-fill"/>
<path d="M8.66406 26H12.6641V29.3359C12.6641 29.7031 12.3672 30 12 30H9.33594C8.96875 30 8.67187 29.7031 8.67187 29.3359V26H8.66406Z" class="theme-primary-fill"/>
<path d="M4.66406 8C5.03081 8 5.32812 7.70269 5.32812 7.33594C5.32812 6.96919 5.03081 6.67188 4.66406 6.67188C4.29731 6.67188 4 6.96919 4 7.33594C4 7.70269 4.29731 8 4.66406 8Z" fill="#133F3F"/>
<path d="M36.6641 34.6641H36V30.1172C37.7734 27.9141 37.7734 24.7812 36 22.5781V4.66406C36 2.08594 33.9062 0 31.3359 0H8.66406C6.09375 0 4 2.09375 4 4.66406C4 5.03125 4.29688 5.32812 4.66406 5.32812C5.03125 5.32812 5.32812 5.03125 5.32812 4.66406C5.32812 2.82031 6.82031 1.33594 8.66406 1.32812H31.3281C33.1719 1.32812 34.6562 2.82031 34.6641 4.66406V21.1953L31.6875 18.2188L30.8047 17.3359H31.3359C32.4375 17.3359 33.3359 16.4375 33.3359 15.3359V4.66406C33.3359 3.5625 32.4375 2.66406 31.3359 2.66406H8.66406C7.5625 2.66406 6.66406 3.5625 6.66406 4.66406V15.3281C6.66406 16.4297 7.5625 17.3281 8.66406 17.3281H26.4062C26.3125 17.5234 26.2422 17.7344 26.2031 17.9531C25 17.6562 23.7734 18.375 23.4375 19.5703C22.5391 19.1016 21.4375 19.2656 20.7188 19.9844C20.4766 20.2266 20.2891 20.5234 20.1797 20.8516L17.9766 18.6484C17.0547 17.7578 15.5938 17.7578 14.6719 18.6484C13.7734 19.5625 13.7734 21.0312 14.6719 21.9453L19.3438 26.6172C18.8828 26.7266 18.4609 26.9531 18.125 27.2812C17.0859 28.3203 17.0859 30.0078 18.125 31.0547L20.9531 33.8828L21.7344 34.6641H12C11.6328 34.6641 11.3359 34.9609 11.3359 35.3281C11.3359 35.6953 11.6328 35.9922 12 35.9922H23.2188C25.2656 37.4062 27.9688 37.4062 30.0156 35.9922H36.6641C37.7656 35.9922 38.6641 36.8906 38.6641 37.9922V38.6562H1.33594V37.9922C1.33594 36.8906 2.23438 35.9922 3.33594 35.9922H8C8.36719 35.9922 8.66406 35.6953 8.66406 35.3281C8.66406 34.9609 8.36719 34.6641 8 34.6641H5.33594V10C5.33594 9.63281 5.03906 9.33594 4.67188 9.33594C4.30469 9.33594 4.00781 9.63281 4.00781 10V34.6641H3.34375C1.49219 34.6719 0 36.1562 0 38V38.6641C0 39.3984 0.59375 40 1.33594 40H38.6719C39.4062 40 40.0078 39.4062 40.0078 38.6641V38C40 36.1562 38.5078 34.6719 36.6641 34.6641ZM8 15.3359V4.66406C8 4.29688 8.29688 4 8.66406 4H31.3281C31.6953 4 31.9922 4.29688 31.9922 4.66406V15.3281C31.9922 15.6953 31.6953 15.9922 31.3281 15.9922H8.66406C8.29688 16 8 15.7031 8 15.3359ZM23.3203 34.3594L19.0781 30.1172C18.5547 29.5938 18.5547 28.75 19.0781 28.2344C19.6094 27.7344 20.4375 27.7344 20.9609 28.2344L22.8438 30.1172C23.0703 30.3359 23.4141 30.375 23.6797 30.2031C23.9453 30.0312 24.0469 29.6953 23.9297 29.3984C23.9062 29.3516 23.875 29.3125 23.8438 29.2734C23.8281 29.2422 23.8047 29.2109 23.7812 29.1797L22.25 27.6484L15.625 21.0156C15.2344 20.625 15.2344 19.9922 15.625 19.6016C16.0156 19.2109 16.6484 19.2109 17.0391 19.6016L20.7109 23.2812C20.7188 23.2891 20.7188 23.2891 20.7188 23.2969L23.625 26.2031L25.1875 27.7656C25.4453 28.0234 25.8672 28.0312 26.1328 27.7656C26.3906 27.5078 26.3984 27.0859 26.1328 26.8203L24.7031 25.3906L21.6562 22.3359C21.2969 21.9375 21.3125 21.3281 21.6953 20.9531C22.0781 20.5781 22.6875 20.5625 23.0781 20.9297L27.5547 25.4062C27.8125 25.6563 28.2344 25.6562 28.4922 25.3984C28.75 25.1406 28.75 24.7266 28.5 24.4609L24.9688 20.9297C24.5781 20.5391 24.5781 19.9062 24.9688 19.5156C25.3672 19.1406 25.9844 19.1406 26.3828 19.5156L26.8516 19.9844L29.9219 23.0547C30.0859 23.2266 30.3359 23.2969 30.5703 23.2344C30.8047 23.1719 30.9844 22.9922 31.0469 22.7578C31.1094 22.5234 31.0391 22.2734 30.8672 22.1094L27.7969 19.0391C27.4062 18.6484 27.4062 18.0156 27.7969 17.625C28.1875 17.2344 28.8203 17.2344 29.2109 17.625L32.2812 20.6953L34.6406 23.0547C35.5156 23.9297 36.0078 25.1172 36.0078 26.3516C36.0078 27.5859 35.5156 28.7734 34.6406 29.6484L29.9219 34.3672C29.0469 35.2422 27.8594 35.7344 26.625 35.7344C25.3906 35.7344 24.1953 35.2422 23.3203 34.3594ZM31.5 34.6641L34.6641 31.5V34.6641H31.5Z" fill="#133F3F"/>
<path d="M15.3359 8C15.3359 6.52344 14.1406 5.33594 12.6719 5.33594H10C9.63281 5.33594 9.33594 5.63281 9.33594 6V14C9.33594 14.3672 9.63281 14.6641 10 14.6641C10.3672 14.6641 10.6641 14.3672 10.6641 14V10.6641H12.25L14.0625 14.2969C14.1719 14.5078 14.3828 14.6484 14.6172 14.6641C14.8516 14.6797 15.0859 14.5625 15.2109 14.3672C15.3438 14.1719 15.3594 13.9141 15.25 13.7031L13.6328 10.4766C14.6641 10.0703 15.3281 9.09375 15.3359 8ZM12.6641 9.33594H10.6641V6.66406H12.6641C13.3984 6.66406 14 7.25781 14 8C14 8.74219 13.4063 9.33594 12.6641 9.33594Z" fill="#133F3F"/>
<path d="M21.3359 6.66406C21.7031 6.66406 22 6.36719 22 6C22 5.63281 21.7031 5.33594 21.3359 5.33594H17.3359C16.9688 5.33594 16.6719 5.63281 16.6719 6V14C16.6719 14.3672 16.9688 14.6641 17.3359 14.6641H21.3359C21.7031 14.6641 22 14.3672 22 14C22 13.6328 21.7031 13.3359 21.3359 13.3359H18V10.6719H21.3359C21.7031 10.6719 22 10.375 22 10.0078C22 9.64063 21.7031 9.34375 21.3359 9.34375H18V6.66406H21.3359Z" fill="#133F3F"/>
<path d="M27.3359 6.66403C28.2187 6.65622 29.0703 7.00778 29.6875 7.64059C29.9453 7.89841 30.3672 7.89059 30.625 7.63278C30.8828 7.37497 30.8906 6.96091 30.6406 6.69528C29.7734 5.81247 28.5781 5.32028 27.3437 5.32809C25.2578 5.32028 23.4297 6.70309 22.8516 8.70309C22.2734 10.7031 23.0937 12.8437 24.8594 13.9531C26.625 15.0547 28.9141 14.8593 30.4609 13.4609C30.6016 13.3359 30.6797 13.1562 30.6797 12.9687V9.99997C30.6797 9.63278 30.3828 9.33591 30.0156 9.33591H28.0156C27.6484 9.33591 27.3516 9.63278 27.3516 9.99997C27.3516 10.3672 27.6484 10.664 28.0156 10.664H29.3516V12.6562C28.7734 13.0937 28.0703 13.3281 27.3516 13.3281C25.5078 13.3281 24.0156 11.8359 24.0156 9.99216C24.0156 8.14841 25.4922 6.66403 27.3359 6.66403Z" fill="#133F3F"/>
<path d="M9.33594 30.6641H12C12.7344 30.6641 13.3359 30.0703 13.3359 29.3281V26.6641C14.0703 26.6641 14.6719 26.0703 14.6719 25.3281V23.9922C14.6719 23.2578 14.0781 22.6562 13.3359 22.6562H8C7.26562 22.6562 6.66406 23.25 6.66406 23.9922V25.3281C6.66406 26.0625 7.25781 26.6641 8 26.6641V29.3281C8 30.0703 8.59375 30.6641 9.33594 30.6641ZM8 24H13.3359V25.3359H8V24ZM12 26.6641V29.3281H9.33594V26.6641H12Z" fill="#133F3F"/>
</svg>
