<svg width="39" height="40" viewBox="0 0 39 40" fill="none" xmlns="http://www.w3.org/2000/svg">
<path fill-rule="evenodd" clip-rule="evenodd" d="M37.6215 4.51385V9.69614H0.581543V4.51385C0.581543 2.46524 2.23953 0.807251 4.28814 0.807251H33.9149C34.8958 0.807251 35.842 1.19788 36.5364 1.89232C37.2308 2.58676 37.6215 3.53295 37.6215 4.51385Z" class="theme-secondary-fill"/>
<path d="M5.04346 6.65796C5.86325 6.65796 6.52783 5.99338 6.52783 5.17358C6.52783 4.35379 5.86325 3.68921 5.04346 3.68921C4.22366 3.68921 3.55908 4.35379 3.55908 5.17358C3.55908 5.99338 4.22366 6.65796 5.04346 6.65796Z" class="theme-primary-fill"/>
<path d="M10.9636 6.65796C11.7834 6.65796 12.448 5.99338 12.448 5.17358C12.448 4.35379 11.7834 3.68921 10.9636 3.68921C10.1438 3.68921 9.47925 4.35379 9.47925 5.17358C9.47925 5.99338 10.1438 6.65796 10.9636 6.65796Z" class="theme-primary-fill"/>
<path d="M16.8923 6.65796C17.7121 6.65796 18.3767 5.99338 18.3767 5.17358C18.3767 4.35379 17.7121 3.68921 16.8923 3.68921C16.0725 3.68921 15.408 4.35379 15.408 5.17358C15.408 5.99338 16.0725 6.65796 16.8923 6.65796Z" class="theme-primary-fill"/>
<path d="M29.0887 38.8107C33.715 38.8107 37.4654 35.0603 37.4654 30.434C37.4654 25.8076 33.715 22.0573 29.0887 22.0573C24.4623 22.0573 20.7119 25.8076 20.7119 30.434C20.7119 35.0603 24.4623 38.8107 29.0887 38.8107Z" class="theme-primary-fill"/>
<path fill-rule="evenodd" clip-rule="evenodd" d="M37.9166 28.6632L36.0937 25.4253L31.8489 22.0399L25.5642 22.526L20.9895 26.5451L20.4687 32.1614L22.9253 36.7014C25.0867 38.559 26.6579 39.0885 26.8662 39.3055L4.45304 39.2621C3.47214 39.2621 2.52596 38.8715 1.83152 38.1771C1.13707 37.4826 0.755127 36.5364 0.755127 35.5555V9.62671H37.7951V18.6718L37.9166 28.6632Z" fill="white"/>
<path d="M5.18218 7.40453C6.40614 7.40453 7.40441 6.40626 7.40441 5.18231C7.40441 3.95835 6.41482 2.96008 5.18218 2.96008C3.94954 2.96008 2.95996 3.95835 2.95996 5.18231C2.95996 6.40626 3.95823 7.40453 5.18218 7.40453ZM5.18218 4.44446C5.59017 4.44446 5.92003 4.77432 5.92003 5.18231C5.92003 5.59029 5.59017 5.92015 5.18218 5.92015C4.7742 5.92015 4.44434 5.59029 4.44434 5.18231C4.44434 4.77432 4.7742 4.44446 5.18218 4.44446Z" fill="#133F3F"/>
<path d="M11.1111 7.40453C12.3351 7.40453 13.3334 6.40626 13.3334 5.18231C13.3334 3.95835 12.3351 2.96008 11.1111 2.96008C9.88718 2.96008 8.88892 3.95835 8.88892 5.18231C8.88892 6.40626 9.8785 7.40453 11.1111 7.40453ZM11.1111 4.44446C11.5191 4.44446 11.849 4.77432 11.849 5.18231C11.849 5.59029 11.5191 5.92015 11.1111 5.92015C10.7032 5.92015 10.3733 5.59029 10.3733 5.18231C10.3733 4.77432 10.7032 4.44446 11.1111 4.44446Z" fill="#133F3F"/>
<path d="M17.0313 7.40453C18.2553 7.40453 19.2535 6.40626 19.2535 5.18231C19.2535 3.95835 18.2553 2.96008 17.0313 2.96008C15.8073 2.96008 14.8091 3.95835 14.8091 5.18231C14.8091 6.40626 15.8073 7.40453 17.0313 7.40453ZM17.0313 4.44446C17.4393 4.44446 17.7692 4.77432 17.7692 5.18231C17.7692 5.59029 17.4393 5.92015 17.0313 5.92015C16.6233 5.92015 16.2935 5.59029 16.2935 5.18231C16.2935 4.77432 16.6233 4.44446 17.0313 4.44446Z" fill="#133F3F"/>
<path d="M8.15093 11.849C7.74295 11.849 7.41309 12.1789 7.41309 12.5868V36.2848C7.41309 36.6928 7.74295 37.0226 8.15093 37.0226C8.55892 37.0226 8.88878 36.6928 8.88878 36.2848V12.5868C8.88878 12.1789 8.55892 11.849 8.15093 11.849Z" fill="#133F3F"/>
<path d="M5.18229 12.5868H3.7066C3.29861 12.5868 2.96875 12.9167 2.96875 13.3246C2.96875 13.7326 3.29861 14.0625 3.7066 14.0625H5.19097C5.59896 14.0625 5.92882 13.7326 5.92882 13.3246C5.92882 12.9253 5.59028 12.5868 5.18229 12.5868Z" fill="#133F3F"/>
<path d="M11.1111 14.0712H33.3768C33.7847 14.0712 34.1146 13.7413 34.1146 13.3333C34.1146 12.9253 33.7847 12.5955 33.3768 12.5955H11.1111C10.7032 12.5955 10.3733 12.9253 10.3733 13.3333C10.3733 13.7413 10.7032 14.0712 11.1111 14.0712Z" fill="#133F3F"/>
<path d="M5.18229 16.2935H3.7066C3.29861 16.2935 2.96875 16.6233 2.96875 17.0313C2.96875 17.4393 3.29861 17.7692 3.7066 17.7692H5.19097C5.59896 17.7692 5.92882 17.4393 5.92882 17.0313C5.92882 16.6233 5.59028 16.2935 5.18229 16.2935Z" fill="#133F3F"/>
<path d="M11.1111 17.7778H28.1945C28.6025 17.7778 28.9323 17.448 28.9323 17.04C28.9323 16.632 28.6025 16.3021 28.1945 16.3021H11.1111C10.7032 16.3021 10.3733 16.632 10.3733 17.04C10.3733 17.448 10.7032 17.7778 11.1111 17.7778Z" fill="#133F3F"/>
<path d="M5.18229 20H3.7066C3.29861 20 2.96875 20.3299 2.96875 20.7378C2.96875 21.1458 3.29861 21.4757 3.7066 21.4757H5.19097C5.59896 21.4757 5.92882 21.1458 5.92882 20.7378C5.92882 20.3299 5.59028 20 5.18229 20Z" fill="#133F3F"/>
<path d="M11.1111 21.4757H22.5C22.908 21.4757 23.2379 21.1458 23.2379 20.7378C23.2379 20.3299 22.908 20 22.5 20H11.1111C10.7032 20 10.3733 20.3299 10.3733 20.7378C10.3733 21.1458 10.7032 21.4757 11.1111 21.4757Z" fill="#133F3F"/>
<path d="M5.18229 23.6979H3.7066C3.29861 23.6979 2.96875 24.0277 2.96875 24.4357C2.96875 24.8437 3.29861 25.1736 3.7066 25.1736H5.19097C5.59896 25.1736 5.92882 24.8437 5.92882 24.4357C5.92882 24.0277 5.59028 23.6979 5.18229 23.6979Z" fill="#133F3F"/>
<path d="M11.1111 25.1822H18.0295C18.4375 25.1822 18.7674 24.8524 18.7674 24.4444C18.7674 24.0364 18.4375 23.7065 18.0295 23.7065H11.1111C10.7032 23.7065 10.3733 24.0364 10.3733 24.4444C10.3733 24.8524 10.7032 25.1822 11.1111 25.1822Z" fill="#133F3F"/>
<path d="M5.18229 27.4045H3.7066C3.29861 27.4045 2.96875 27.7344 2.96875 28.1424C2.96875 28.5504 3.29861 28.8802 3.7066 28.8802H5.19097C5.59896 28.8802 5.92882 28.5504 5.92882 28.1424C5.92882 27.7344 5.59028 27.4045 5.18229 27.4045Z" fill="#133F3F"/>
<path d="M11.1111 28.8889H16.9358C17.3438 28.8889 17.6736 28.559 17.6736 28.1511C17.6736 27.7431 17.3438 27.4132 16.9358 27.4132H11.1111C10.7032 27.4132 10.3733 27.7431 10.3733 28.1511C10.3733 28.5504 10.7032 28.8889 11.1111 28.8889Z" fill="#133F3F"/>
<path d="M38.4808 18.0469V17.4306C38.4808 17.0226 38.151 16.6927 37.743 16.6927C37.335 16.6927 37.0051 17.0226 37.0051 17.4306V18.0469C37.0051 18.4549 37.335 18.7848 37.743 18.7848C38.151 18.7848 38.4808 18.4549 38.4808 18.0469Z" fill="#133F3F"/>
<path d="M38.4808 22.6042V20.4253C38.4808 20.0174 38.151 19.6875 37.743 19.6875C37.335 19.6875 37.0051 20.0174 37.0051 20.4253V22.6042C37.0051 23.0122 37.335 23.342 37.743 23.342C38.151 23.342 38.4808 23.0122 38.4808 22.6042Z" fill="#133F3F"/>
<path d="M5.18229 31.1111H3.7066C3.29861 31.1111 2.96875 31.4409 2.96875 31.8489C2.96875 32.2569 3.29861 32.5868 3.7066 32.5868H5.19097C5.59896 32.5868 5.92882 32.2569 5.92882 31.8489C5.92882 31.4409 5.59028 31.1111 5.18229 31.1111Z" fill="#133F3F"/>
<path d="M11.1111 32.5868H16.9358C17.3438 32.5868 17.6736 32.2569 17.6736 31.8489C17.6736 31.4409 17.3438 31.1111 16.9358 31.1111H11.1111C10.7032 31.1111 10.3733 31.4409 10.3733 31.8489C10.3733 32.2569 10.7032 32.5868 11.1111 32.5868Z" fill="#133F3F"/>
<path d="M5.18229 34.8091H3.7066C3.29861 34.8091 2.96875 35.1389 2.96875 35.5469C2.96875 35.9549 3.29861 36.2848 3.7066 36.2848H5.19097C5.59896 36.2848 5.92882 35.9549 5.92882 35.5469C5.92882 35.1389 5.59028 34.8091 5.18229 34.8091Z" fill="#133F3F"/>
<path d="M18.2813 34.8091H11.1111C10.7032 34.8091 10.3733 35.1389 10.3733 35.5469C10.3733 35.9549 10.7032 36.2848 11.1111 36.2848H18.29C18.6979 36.2848 19.0278 35.9549 19.0278 35.5469C19.0278 35.1389 18.6979 34.8091 18.2813 34.8091Z" fill="#133F3F"/>
<path d="M4.44444 1.48438H33.3333C35.3819 1.48438 37.0399 3.14236 37.0399 5.19097V8.15104C37.0399 8.55903 36.7101 8.88889 36.3021 8.88889H2.22222C1.81424 8.88889 1.48438 8.55903 1.48438 8.15104V4.44444C1.48438 2.80382 2.80382 1.48438 4.44444 1.48438ZM37.8385 15.7118C38.2118 15.7031 38.5156 15.3993 38.5156 15.026V4.44444C38.5156 1.98785 36.5278 0 34.0712 0H4.44444C1.98785 0 0 1.98785 0 4.44444V35.5556C0 38.0122 1.98785 40 4.44444 40H19.974C20.3819 40 20.7118 39.6701 20.7118 39.2708C20.7205 38.8542 20.3819 38.5243 19.974 38.5243H4.44444C2.8125 38.5243 1.48438 37.1962 1.48438 35.5642V11.1111C1.48438 10.7031 1.81424 10.3733 2.22222 10.3733H36.2934C36.7014 10.3733 37.0313 10.7031 37.0313 11.1111V15.0434C37.0313 15.4167 37.3351 15.7205 37.7083 15.7118H37.8385Z" fill="#133F3F"/>
<path d="M35.7552 23.7587C35.7465 23.75 35.7378 23.75 35.7291 23.7413C32.0659 20.0955 26.1458 20.0955 22.4826 23.7413C22.4739 23.75 22.4653 23.75 22.4566 23.7587C22.4479 23.7674 22.4479 23.7761 22.4392 23.7847C18.7934 27.4479 18.7934 33.3681 22.4392 37.0313C22.4479 37.0399 22.4479 37.0486 22.4566 37.0573C22.4653 37.066 22.4739 37.066 22.4826 37.0747C26.1458 40.7205 32.0659 40.7205 35.7291 37.0747C35.7378 37.066 35.7465 37.066 35.7552 37.0573C35.7639 37.0486 35.7639 37.0399 35.7725 37.0313C39.4184 33.3681 39.4184 27.4479 35.7725 23.7847C35.7639 23.7761 35.7552 23.7674 35.7552 23.7587ZM35.3732 31.1892H36.901C36.7448 32.717 36.1458 34.1754 35.1649 35.3559L34.7482 34.9392C34.4444 34.6441 33.9496 34.6441 33.6458 34.9479C33.342 35.2518 33.342 35.7379 33.6371 36.0504L34.0538 36.467C32.8646 37.4393 31.4149 38.0469 29.8871 38.2031V36.6754C29.8871 36.2413 29.5399 35.8941 29.1059 35.8941C28.6718 35.8941 28.3246 36.2413 28.3246 36.6754V38.2031C26.7968 38.0469 25.3385 37.4479 24.158 36.467L24.5746 36.0504C24.8698 35.7465 24.8698 35.2518 24.5659 34.9479C24.2621 34.6441 23.776 34.6441 23.4635 34.9392L23.0468 35.3559C22.0746 34.1667 21.467 32.717 21.3107 31.1892H22.8385C23.2725 31.1892 23.6198 30.842 23.6198 30.408C23.6198 29.974 23.2725 29.6267 22.8385 29.6267H21.3107C21.467 28.099 22.0659 26.6406 23.0468 25.4601L23.4635 25.8768C23.7673 26.1719 24.2621 26.1719 24.5659 25.8681C24.8698 25.5642 24.8698 25.0781 24.5746 24.7656L24.158 24.349C25.3472 23.3767 26.7968 22.7691 28.3246 22.6129V24.1406C28.3246 24.5747 28.6718 24.9219 29.1059 24.9219C29.5399 24.9219 29.8871 24.5747 29.8871 24.1406V22.6129C31.4149 22.7691 32.8732 23.3681 34.0538 24.349L33.6371 24.7656C33.4375 24.9653 33.3507 25.2518 33.4201 25.5295C33.4896 25.8073 33.7066 26.0156 33.9757 26.0851C34.2534 26.1545 34.5399 26.0764 34.7396 25.8681L35.1562 25.4514C36.1284 26.6406 36.7361 28.0903 36.8923 29.6181H35.3646C34.9305 29.6181 34.5833 29.9653 34.5833 30.3993C34.5833 30.8333 34.9392 31.1892 35.3732 31.1892Z" fill="#133F3F"/>
<path d="M31.0244 30.4861L29.8872 29.9219V27.2743C29.8872 26.8403 29.54 26.493 29.106 26.493C28.6719 26.493 28.3247 26.8403 28.3247 27.2743V30.408C28.3247 30.7031 28.4896 30.9809 28.7587 31.1111L30.3212 31.8923C30.7119 32.0833 31.1806 31.9271 31.3716 31.5451C31.5626 31.1545 31.4063 30.6858 31.0244 30.4861Z" fill="#133F3F"/>
</svg>
