<svg width="18" height="18" viewBox="0 0 18 18" fill="none" xmlns="http://www.w3.org/2000/svg">
<circle cx="9" cy="9" r="9" fill="#1AB900"/>
<path fill-rule="evenodd" clip-rule="evenodd" d="M8.70225 6.24655L8.70225 13.4628C8.70225 13.7595 8.94278 14 9.23948 14C9.53618 14 9.77671 13.7595 9.77671 13.4628L9.77671 6.19833L12.0418 8.46344C12.261 8.68264 12.6164 8.68264 12.8356 8.46344C13.0548 8.24424 13.0548 7.88885 12.8356 7.66965L9.67084 4.50489L9.66062 4.4944C9.48274 4.31653 9.21519 4.283 9.00351 4.3938C8.99503 4.39824 8.98664 4.4029 8.97835 4.4078C8.93848 4.43135 8.90091 4.46025 8.86666 4.4945L8.8613 4.49993L5.69168 7.66955C5.47248 7.88875 5.47248 8.24414 5.69168 8.46334C5.91087 8.68254 6.26627 8.68254 6.48546 8.46334L8.70225 6.24655Z" fill="white"/>
</svg>
