<svg width="49" height="44" viewBox="0 0 49 44" fill="none" xmlns="http://www.w3.org/2000/svg">
<path d="M3.50254 42.4991C3.04135 42.4992 2.58825 42.3779 2.18881 42.1474C1.78937 41.9168 1.45766 41.5852 1.22704 41.1858C0.996412 40.7864 0.874996 40.3334 0.875 39.8722C0.875004 39.411 0.996426 38.9579 1.22706 38.5586L22.2246 2.18917C22.4552 1.78977 22.7868 1.4581 23.1862 1.22749C23.5856 0.996892 24.0386 0.875488 24.4998 0.875488C24.9609 0.875488 25.414 0.996892 25.8133 1.22749C26.2127 1.4581 26.5443 1.78977 26.7749 2.18917L47.7728 38.5584C48.0034 38.9578 48.1249 39.4108 48.1249 39.872C48.1249 40.3332 48.0035 40.7863 47.7728 41.1856C47.5422 41.585 47.2105 41.9167 46.8111 42.1472C46.4116 42.3777 45.9585 42.499 45.4973 42.4989L3.50254 42.4991Z" fill="#FFD21E"/>
<path d="M24.5001 1.75042C24.8082 1.74722 25.1115 1.8268 25.3783 1.98086C25.6452 2.13492 25.8657 2.35779 26.017 2.62621L47.015 38.996C47.1688 39.2623 47.2497 39.5644 47.2498 39.8719C47.2498 40.1794 47.1689 40.4815 47.0151 40.7479C46.8614 41.0142 46.6402 41.2353 46.3739 41.3891C46.1076 41.5429 45.8055 41.6238 45.498 41.6238H3.50215C3.19467 41.6238 2.89262 41.5428 2.62634 41.3891C2.36007 41.2353 2.13895 41.0142 1.98521 40.7479C1.83148 40.4816 1.75054 40.1796 1.75054 39.8721C1.75053 39.5646 1.83146 39.2626 1.98519 38.9963L22.9831 2.62648C23.1344 2.35801 23.3549 2.13509 23.6218 1.98098C23.8886 1.82688 24.1919 1.74725 24.5001 1.75042ZM24.5001 5.09672e-05C23.8847 -0.0032845 23.2794 0.157149 22.7465 0.464894C22.2135 0.772639 21.772 1.21662 21.4672 1.75129L0.469376 38.1209C0.161928 38.6532 4.49021e-05 39.2572 9.33967e-09 39.8719C-4.48835e-05 40.4867 0.16175 41.0907 0.46912 41.6231C0.77649 42.1555 1.2186 42.5976 1.75102 42.905C2.28343 43.2124 2.88738 43.3742 3.50215 43.3741H45.498C46.1127 43.3741 46.7166 43.2123 47.249 42.905C47.7814 42.5976 48.2235 42.1555 48.5308 41.6231C48.8382 41.0908 49 40.4869 49 39.8721C49 39.2574 48.8382 38.6535 48.5308 38.1211L27.5329 1.75129C27.2282 1.21662 26.7867 0.772639 26.2537 0.464894C25.7207 0.157149 25.1155 -0.0032845 24.5001 5.09672e-05Z" fill="#373737"/>
<path d="M24.4999 36.5591C25.4666 36.5591 26.2502 35.7754 26.2502 34.8087C26.2502 33.842 25.4666 33.0583 24.4999 33.0583C23.5332 33.0583 22.7495 33.842 22.7495 34.8087C22.7495 35.7754 23.5332 36.5591 24.4999 36.5591Z" fill="#373737"/>
<path d="M26.2502 13.8043C26.2502 12.8376 25.4666 12.054 24.4999 12.054C23.5332 12.054 22.7495 12.8376 22.7495 13.8043V27.8073C22.7495 28.774 23.5332 29.5576 24.4999 29.5576C25.4666 29.5576 26.2502 28.774 26.2502 27.8073V13.8043Z" fill="#373737"/>
</svg>
